<svg width="581" height="290" viewBox="0 0 581 290" fill="none" xmlns="http://www.w3.org/2000/svg">
<rect x="0.5" y="0.5" width="580" height="289" rx="11.5" fill="white"/>
<rect x="0.5" y="0.5" width="580" height="289" rx="11.5" stroke="#E2E2E2"/>
<path d="M18.1473 62.1242H16.4305V61.3599H18.9586V69.7793H18.1473V62.1242ZM20.593 65.5696C20.593 62.9591 21.8747 61.1952 23.9678 61.1952C26.0491 61.1952 27.3309 62.9591 27.3309 65.5696C27.3309 68.1918 26.0727 69.9322 23.9678 69.9322C21.8512 69.9322 20.593 68.1918 20.593 65.5696ZM21.4279 65.5696C21.4279 67.7567 22.3568 69.1678 23.9678 69.1678C25.5788 69.1678 26.5077 67.7567 26.5077 65.5696C26.5077 63.3706 25.5788 61.9713 23.9678 61.9713C22.3568 61.9713 21.4279 63.3706 21.4279 65.5696ZM28.6199 65.5696C28.6199 62.9591 29.9016 61.1952 31.9947 61.1952C34.076 61.1952 35.3578 62.9591 35.3578 65.5696C35.3578 68.1918 34.0995 69.9322 31.9947 69.9322C29.8781 69.9322 28.6199 68.1918 28.6199 65.5696ZM29.4547 65.5696C29.4547 67.7567 30.3837 69.1678 31.9947 69.1678C33.6057 69.1678 34.5346 67.7567 34.5346 65.5696C34.5346 63.3706 33.6057 61.9713 31.9947 61.9713C30.3837 61.9713 29.4547 63.3706 29.4547 65.5696Z" fill="#667085"/>
<line x1="44.3293" y1="65.7791" x2="565.706" y2="65.7791" stroke="#F2F4F7" stroke-width="0.979916" stroke-linecap="round"/>
<path d="M17.3727 103.088C17.3727 102.054 17.996 101.23 18.9955 100.889C18.1488 100.548 17.6667 99.8546 17.6667 98.9845C17.6667 97.691 18.772 96.809 20.383 96.809C21.9823 96.809 23.0523 97.691 23.0523 98.9962C23.0523 99.8781 22.582 100.572 21.7471 100.889C22.7231 101.195 23.3698 102.042 23.3698 103.1C23.3698 104.535 22.1586 105.522 20.3713 105.522C18.5839 105.522 17.3727 104.535 17.3727 103.088ZM18.4663 99.008C18.4663 99.9369 19.2189 100.56 20.3713 100.56C21.5119 100.56 22.2527 99.9605 22.2527 99.0315C22.2527 98.126 21.5119 97.5616 20.3713 97.5616C19.2189 97.5616 18.4663 98.126 18.4663 99.008ZM18.2076 103.018C18.2076 104.064 19.0778 104.758 20.383 104.758C21.6648 104.758 22.5349 104.064 22.5349 103.018C22.5349 101.983 21.6883 101.313 20.3595 101.313C19.0543 101.313 18.2076 101.983 18.2076 103.018ZM24.6199 101.172C24.6199 98.5611 25.9016 96.7973 27.9947 96.7973C30.076 96.7973 31.3578 98.5611 31.3578 101.172C31.3578 103.794 30.0995 105.534 27.9947 105.534C25.8781 105.534 24.6199 103.794 24.6199 101.172ZM25.4547 101.172C25.4547 103.359 26.3837 104.77 27.9947 104.77C29.6057 104.77 30.5346 103.359 30.5346 101.172C30.5346 98.9727 29.6057 97.5734 27.9947 97.5734C26.3837 97.5734 25.4547 98.9727 25.4547 101.172Z" fill="#667085"/>
<line x1="40.3293" y1="101.382" x2="565.706" y2="101.382" stroke="#F2F4F7" stroke-width="0.979916" stroke-linecap="round"/>
<path d="M18.4871 132.949L20.5919 130.115H21.5797L19.369 133.043C19.7688 132.843 20.1333 132.761 20.5214 132.761C22.2735 132.761 23.4376 134.042 23.4376 135.689C23.4376 137.417 22.1324 138.675 20.4508 138.675C18.7575 138.675 17.4288 137.37 17.4288 135.689C17.4288 134.713 17.6992 134.03 18.4871 132.949ZM18.2872 135.7C18.2872 136.982 19.1691 137.911 20.4508 137.911C21.6973 137.911 22.591 136.982 22.591 135.7C22.591 134.419 21.6973 133.501 20.4508 133.501C19.1691 133.501 18.2872 134.419 18.2872 135.7ZM24.6199 134.324C24.6199 131.714 25.9016 129.95 27.9947 129.95C30.076 129.95 31.3578 131.714 31.3578 134.324C31.3578 136.947 30.0995 138.687 27.9947 138.687C25.8781 138.687 24.6199 136.947 24.6199 134.324ZM25.4547 134.324C25.4547 136.512 26.3837 137.923 27.9947 137.923C29.6057 137.923 30.5346 136.512 30.5346 134.324C30.5346 132.126 29.6057 130.726 27.9947 130.726C26.3837 130.726 25.4547 132.126 25.4547 134.324Z" fill="#667085"/>
<line x1="40.3293" y1="134.534" x2="565.706" y2="134.534" stroke="#F2F4F7" stroke-width="0.979916" stroke-linecap="round"/>
<path d="M23.3034 169.899H22.3156V171.687H21.4925V169.899H17.0711V169.147L21.1868 163.267H22.3156V169.147H23.3034V169.899ZM17.9883 169.147H21.4925V164.137L17.9883 169.147ZM24.6199 167.477C24.6199 164.866 25.9016 163.102 27.9947 163.102C30.076 163.102 31.3578 164.866 31.3578 167.477C31.3578 170.099 30.0995 171.839 27.9947 171.839C25.8781 171.839 24.6199 170.099 24.6199 167.477ZM25.4547 167.477C25.4547 169.664 26.3837 171.075 27.9947 171.075C29.6057 171.075 30.5346 169.664 30.5346 167.477C30.5346 165.278 29.6057 163.879 27.9947 163.879C26.3837 163.879 25.4547 165.278 25.4547 167.477Z" fill="#667085"/>
<line x1="40.3293" y1="167.687" x2="565.706" y2="167.687" stroke="#F2F4F7" stroke-width="0.979916" stroke-linecap="round"/>
<path d="M22.4496 204.839H16.8993V204.169L19.5921 201.817C21.1443 200.465 21.5441 199.877 21.5441 198.878C21.5441 197.737 20.8621 197.043 19.745 197.043C18.5808 197.043 17.8165 197.89 17.7812 199.195H16.9346C16.9816 197.431 18.0987 196.267 19.7567 196.267C21.3442 196.267 22.4025 197.29 22.4025 198.831C22.4025 200.053 21.8498 200.865 20.1683 202.335L18.2046 204.052H22.4496V204.839ZM23.6199 200.63C23.6199 198.019 24.9016 196.255 26.9947 196.255C29.076 196.255 30.3578 198.019 30.3578 200.63C30.3578 203.252 29.0995 204.992 26.9947 204.992C24.8781 204.992 23.6199 203.252 23.6199 200.63ZM24.4547 200.63C24.4547 202.817 25.3837 204.228 26.9947 204.228C28.6057 204.228 29.5346 202.817 29.5346 200.63C29.5346 198.431 28.6057 197.031 26.9947 197.031C25.3837 197.031 24.4547 198.431 24.4547 200.63Z" fill="#667085"/>
<line x1="39.3293" y1="200.84" x2="565.706" y2="200.84" stroke="#F2F4F7" stroke-width="0.979916" stroke-linecap="round"/>
<path d="M39.9772 233.782C39.9772 231.171 41.2589 229.408 43.352 229.408C45.4333 229.408 46.7151 231.171 46.7151 233.782C46.7151 236.404 45.4569 238.145 43.352 238.145C41.2354 238.145 39.9772 236.404 39.9772 233.782ZM40.8121 233.782C40.8121 235.969 41.741 237.38 43.352 237.38C44.963 237.38 45.8919 235.969 45.8919 233.782C45.8919 231.583 44.963 230.184 43.352 230.184C41.741 230.184 40.8121 231.583 40.8121 233.782Z" fill="#667085"/>
<line x1="55.6866" y1="233.992" x2="566.063" y2="233.992" stroke="#F2F4F7" stroke-width="0.979916" stroke-linecap="round"/>
<path d="M65.7434 255.321H64.9085V246.902H65.7434L68.8125 254.322L71.8816 246.902H72.7283V255.321H71.8934V251.323C71.8934 249.853 71.9169 249.207 71.9639 248.63L69.2241 255.321H68.4127L65.6729 248.666C65.7199 248.983 65.7434 249.912 65.7434 251.194V255.321ZM74.1966 252.476C74.1966 250.735 75.4195 249.477 77.0893 249.477C78.7591 249.477 79.982 250.735 79.982 252.476C79.982 254.204 78.7591 255.462 77.0893 255.462C75.4195 255.462 74.1966 254.204 74.1966 252.476ZM75.0197 252.464C75.0197 253.804 75.8663 254.733 77.0893 254.733C78.3005 254.733 79.1589 253.804 79.1589 252.464C79.1589 251.147 78.3005 250.206 77.0893 250.206C75.8663 250.206 75.0197 251.147 75.0197 252.464ZM82.0911 255.321H81.2797V249.63H81.9852L82.1028 250.618C82.4791 249.889 83.2317 249.477 84.0548 249.477C85.6188 249.477 86.2655 250.406 86.2655 251.841V255.321H85.4541V252.017C85.4541 250.688 84.8544 250.218 83.9137 250.218C82.7496 250.218 82.0911 251.065 82.0911 252.346V255.321Z" fill="#667085"/>
<path d="M147.577 247.678V246.902H153.61V247.678H151.011V255.321H150.164V247.678H147.577ZM157.896 249.63H158.708V255.321H158.002L157.896 254.357C157.579 255.016 156.791 255.462 155.897 255.462C154.557 255.462 153.828 254.545 153.828 253.158V249.618H154.651V252.899C154.651 254.251 155.251 254.733 156.156 254.733C157.25 254.733 157.896 254.004 157.896 252.652V249.63ZM162.67 255.462C161 255.462 159.883 254.263 159.883 252.476C159.883 250.7 160.989 249.477 162.611 249.477C164.152 249.477 165.198 250.571 165.198 252.182V252.581H160.671C160.73 253.969 161.459 254.769 162.682 254.769C163.611 254.769 164.211 254.369 164.422 253.616H165.198C164.893 254.816 164.011 255.462 162.67 255.462ZM162.611 250.171C161.541 250.171 160.836 250.876 160.695 251.993H164.387C164.387 250.9 163.681 250.171 162.611 250.171Z" fill="#667085"/>
<path d="M228.012 255.321L225.507 246.902H226.389L228.094 252.687C228.212 253.099 228.317 253.522 228.423 254.075C228.564 253.463 228.682 253.099 228.811 252.687L230.646 246.902H231.528L233.362 252.687C233.491 253.111 233.609 253.534 233.738 254.075C233.868 253.428 233.973 253.017 234.068 252.699L235.808 246.902H236.666L234.138 255.321H233.338L231.081 248.172L228.823 255.321H228.012ZM239.416 255.462C237.746 255.462 236.629 254.263 236.629 252.476C236.629 250.7 237.735 249.477 239.357 249.477C240.898 249.477 241.944 250.571 241.944 252.182V252.581H237.417C237.476 253.969 238.205 254.769 239.428 254.769C240.357 254.769 240.957 254.369 241.168 253.616H241.944C241.639 254.816 240.757 255.462 239.416 255.462ZM239.357 250.171C238.287 250.171 237.582 250.876 237.441 251.993H241.133C241.133 250.9 240.427 250.171 239.357 250.171ZM245.476 255.462C243.818 255.462 242.842 254.192 242.842 252.487C242.842 250.771 243.818 249.477 245.511 249.477C246.452 249.477 247.204 249.889 247.604 250.712V246.749H248.415V255.321H247.71L247.628 254.157C247.228 255.039 246.428 255.462 245.476 255.462ZM245.617 254.722C246.863 254.722 247.592 253.781 247.592 252.464C247.592 251.159 246.863 250.206 245.617 250.206C244.382 250.206 243.665 251.159 243.665 252.464C243.665 253.781 244.382 254.722 245.617 254.722Z" fill="#667085"/>
<path d="M309.597 247.678V246.902H315.63V247.678H313.031V255.321H312.184V247.678H309.597ZM317.43 255.31H316.619V246.749H317.43V250.618C317.795 249.936 318.489 249.477 319.441 249.477C320.934 249.477 321.605 250.406 321.605 251.841V255.321H320.793V252.017C320.793 250.688 320.17 250.218 319.288 250.218C318.065 250.218 317.43 251.123 317.43 252.217V255.31ZM327.22 249.63H328.031V255.321H327.326L327.22 254.357C326.902 255.016 326.115 255.462 325.221 255.462C323.88 255.462 323.151 254.545 323.151 253.158V249.618H323.974V252.899C323.974 254.251 324.574 254.733 325.48 254.733C326.573 254.733 327.22 254.004 327.22 252.652V249.63Z" fill="#667085"/>
<path d="M394.217 251.617H390.772V255.321H389.925V246.902H394.887V247.678H390.772V250.853H394.217V251.617ZM398.752 249.559V250.288H398.306C397.259 250.288 396.589 250.994 396.589 252.076V255.321H395.777V249.63H396.542L396.601 250.512C396.824 249.9 397.424 249.501 398.223 249.501C398.4 249.501 398.553 249.512 398.752 249.559ZM400.231 248.066C399.902 248.066 399.631 247.796 399.631 247.466C399.631 247.137 399.902 246.855 400.231 246.855C400.56 246.855 400.842 247.137 400.842 247.466C400.842 247.796 400.56 248.066 400.231 248.066ZM399.831 255.321V249.63H400.642V255.321H399.831Z" fill="#667085"/>
<path d="M462.45 249.089C462.45 247.678 463.578 246.749 465.272 246.749C466.789 246.749 467.788 247.596 467.918 249.007H467.059C466.965 248.054 466.318 247.513 465.26 247.513C464.072 247.513 463.296 248.125 463.296 249.077C463.296 249.818 463.731 250.288 464.613 250.512L466.06 250.865C467.377 251.182 468.059 251.935 468.059 253.075C468.059 254.533 466.93 255.462 465.189 255.462C463.555 255.462 462.45 254.604 462.344 253.228H463.214C463.261 254.11 464.037 254.686 465.189 254.686C466.424 254.686 467.212 254.087 467.212 253.122C467.212 252.37 466.789 251.876 465.883 251.664L464.46 251.311C463.143 250.994 462.45 250.241 462.45 249.089ZM471.039 255.462C469.828 255.462 469.111 254.78 469.111 253.781C469.111 252.734 469.91 252.076 471.239 251.97L473.121 251.817V251.629C473.121 250.512 472.45 250.159 471.615 250.159C470.628 250.159 470.04 250.606 470.04 251.37H469.299C469.299 250.218 470.24 249.477 471.639 249.477C472.956 249.477 473.92 250.136 473.92 251.641V255.321H473.238L473.132 254.322C472.78 255.039 472.004 255.462 471.039 255.462ZM471.227 254.804C472.427 254.804 473.121 253.969 473.121 252.734V252.429L471.439 252.558C470.369 252.652 469.934 253.122 469.934 253.757C469.934 254.451 470.451 254.804 471.227 254.804ZM476.75 255.321H475.951V250.312H474.81V249.63H475.951V247.831H476.75V249.63H477.891V250.312H476.75V255.321Z" fill="#667085"/>
<path d="M538.503 249.089C538.503 247.678 539.632 246.749 541.325 246.749C542.842 246.749 543.841 247.596 543.971 249.007H543.112C543.018 248.054 542.372 247.513 541.313 247.513C540.126 247.513 539.349 248.125 539.349 249.077C539.349 249.818 539.785 250.288 540.666 250.512L542.113 250.865C543.43 251.182 544.112 251.935 544.112 253.075C544.112 254.533 542.983 255.462 541.243 255.462C539.608 255.462 538.503 254.604 538.397 253.228H539.267C539.314 254.11 540.09 254.686 541.243 254.686C542.477 254.686 543.265 254.087 543.265 253.122C543.265 252.37 542.842 251.876 541.936 251.664L540.514 251.311C539.197 250.994 538.503 250.241 538.503 249.089ZM549.456 249.63H550.267V255.321H549.562L549.456 254.357C549.139 255.016 548.351 255.462 547.457 255.462C546.116 255.462 545.387 254.545 545.387 253.158V249.618H546.211V252.899C546.211 254.251 546.81 254.733 547.716 254.733C548.809 254.733 549.456 254.004 549.456 252.652V249.63ZM552.769 255.321H551.958V249.63H552.663L552.781 250.618C553.157 249.889 553.91 249.477 554.733 249.477C556.297 249.477 556.943 250.406 556.943 251.841V255.321H556.132V252.017C556.132 250.688 555.532 250.218 554.592 250.218C553.427 250.218 552.769 251.065 552.769 252.346V255.321Z" fill="#667085"/>
<path d="M16.252 20.606V18.986H25.846V20.606H21.94V32H20.176V20.606H16.252ZM29.0234 31.982H27.3314V18.752H29.0234V24.548C29.5814 23.594 30.6434 22.946 32.0114 22.946C34.2614 22.946 35.3414 24.368 35.3414 26.618V32H33.6494V26.996C33.6494 25.214 32.8034 24.494 31.5434 24.494C29.9054 24.494 29.0234 25.682 29.0234 27.194V31.982ZM38.5129 21.11C37.9009 21.11 37.3969 20.606 37.3969 19.994C37.3969 19.364 37.9009 18.878 38.5129 18.878C39.1249 18.878 39.6289 19.364 39.6289 19.994C39.6289 20.606 39.1249 21.11 38.5129 21.11ZM37.6849 32V23.198H39.3769V32H37.6849ZM41.1134 29.444H42.7334C42.7334 30.344 43.4174 30.884 44.5334 30.884C45.7214 30.884 46.4054 30.398 46.4054 29.588C46.4054 28.994 46.1174 28.634 45.1994 28.4L43.6514 28.04C42.0854 27.662 41.3474 26.888 41.3474 25.592C41.3474 23.972 42.7154 22.946 44.6594 22.946C46.5854 22.946 47.8454 24.026 47.8814 25.7H46.2614C46.2254 24.818 45.6314 24.26 44.6054 24.26C43.5434 24.26 42.9494 24.728 42.9494 25.538C42.9494 26.132 43.3814 26.528 44.2454 26.744L45.7934 27.122C47.2874 27.482 48.0254 28.166 48.0254 29.48C48.0254 31.154 46.5854 32.216 44.4974 32.216C42.4274 32.216 41.1134 31.118 41.1134 29.444ZM57.7396 32L53.8696 18.986H55.7056L58.0816 26.942C58.2616 27.626 58.4416 28.31 58.6216 29.3C58.8376 28.256 59.0356 27.626 59.2336 26.942L61.6996 18.986H63.6076L66.0556 26.942C66.2716 27.644 66.4516 28.328 66.6496 29.3C66.8656 28.202 67.0456 27.536 67.2256 26.96L69.6196 18.986H71.4196L67.4956 32H65.8036L62.6536 21.704L59.4676 32H57.7396ZM75.5669 32.216C72.9749 32.216 71.1929 30.344 71.1929 27.608C71.1929 24.854 72.9389 22.946 75.4949 22.946C77.9969 22.946 79.6349 24.674 79.6349 27.284V27.914L72.8309 27.932C72.9569 29.786 73.9289 30.812 75.6029 30.812C76.9169 30.812 77.7809 30.272 78.0689 29.264H79.6529C79.2209 31.154 77.7449 32.216 75.5669 32.216ZM75.4949 24.368C74.0189 24.368 73.0829 25.25 72.8669 26.798H77.9429C77.9429 25.34 76.9889 24.368 75.4949 24.368ZM85.3228 32.216C82.7308 32.216 80.9488 30.344 80.9488 27.608C80.9488 24.854 82.6948 22.946 85.2508 22.946C87.7528 22.946 89.3908 24.674 89.3908 27.284V27.914L82.5868 27.932C82.7128 29.786 83.6848 30.812 85.3588 30.812C86.6728 30.812 87.5368 30.272 87.8248 29.264H89.4088C88.9768 31.154 87.5008 32.216 85.3228 32.216ZM85.2508 24.368C83.7748 24.368 82.8388 25.25 82.6228 26.798H87.6988C87.6988 25.34 86.7448 24.368 85.2508 24.368ZM93.0086 32H91.3166V18.752H93.0086V27.338L96.9146 23.198H99.0386L95.6726 26.708L99.0206 32H97.0766L94.5026 27.932L93.0086 29.498V32ZM102.797 20.3C102.797 21.614 101.879 22.676 100.619 22.838V22.082C101.321 21.956 101.825 21.488 101.825 20.912C101.699 20.984 101.537 21.02 101.321 21.02C100.781 21.02 100.313 20.624 100.313 19.922C100.313 19.238 100.781 18.734 101.501 18.734C102.221 18.734 102.797 19.328 102.797 20.3ZM103.533 29.444H105.153C105.153 30.344 105.837 30.884 106.953 30.884C108.141 30.884 108.825 30.398 108.825 29.588C108.825 28.994 108.537 28.634 107.619 28.4L106.071 28.04C104.505 27.662 103.767 26.888 103.767 25.592C103.767 23.972 105.135 22.946 107.079 22.946C109.005 22.946 110.265 24.026 110.301 25.7H108.681C108.645 24.818 108.051 24.26 107.025 24.26C105.963 24.26 105.369 24.728 105.369 25.538C105.369 26.132 105.801 26.528 106.665 26.744L108.213 27.122C109.707 27.482 110.445 28.166 110.445 29.48C110.445 31.154 109.005 32.216 106.917 32.216C104.847 32.216 103.533 31.118 103.533 29.444ZM119.296 18.986V32H117.532V18.986H119.296ZM123.734 32H122.042V23.198H123.572L123.752 24.548C124.31 23.54 125.426 22.946 126.668 22.946C128.99 22.946 130.052 24.368 130.052 26.618V32H128.36V26.996C128.36 25.214 127.532 24.494 126.236 24.494C124.652 24.494 123.734 25.628 123.734 27.338V32ZM131.82 27.608C131.82 24.854 133.566 22.946 136.14 22.946C138.354 22.946 139.902 24.206 140.208 26.168H138.516C138.228 25.052 137.328 24.458 136.194 24.458C134.592 24.458 133.494 25.682 133.494 27.59C133.494 29.48 134.52 30.704 136.122 30.704C137.328 30.704 138.228 30.074 138.534 29.03H140.226C139.884 30.938 138.246 32.216 136.122 32.216C133.53 32.216 131.82 30.38 131.82 27.608ZM141.435 27.59C141.435 24.872 143.379 22.964 146.025 22.964C148.653 22.964 150.597 24.872 150.597 27.59C150.597 30.308 148.653 32.216 146.025 32.216C143.379 32.216 141.435 30.308 141.435 27.59ZM143.145 27.59C143.145 29.426 144.315 30.704 146.025 30.704C147.717 30.704 148.905 29.426 148.905 27.59C148.905 25.754 147.717 24.476 146.025 24.476C144.315 24.476 143.145 25.754 143.145 27.59ZM154.162 32H152.47V23.198H153.982L154.144 24.35C154.594 23.522 155.53 22.946 156.772 22.946C158.14 22.946 159.112 23.63 159.562 24.728C159.976 23.63 161.038 22.946 162.406 22.946C164.422 22.946 165.646 24.206 165.646 26.24V32H163.99V26.654C163.99 25.268 163.216 24.476 162.028 24.476C160.75 24.476 159.904 25.376 159.904 26.78V32H158.23V26.636C158.23 25.25 157.474 24.494 156.286 24.494C155.008 24.494 154.162 25.376 154.162 26.78V32ZM171.79 32.216C169.198 32.216 167.416 30.344 167.416 27.608C167.416 24.854 169.162 22.946 171.718 22.946C174.22 22.946 175.858 24.674 175.858 27.284V27.914L169.054 27.932C169.18 29.786 170.152 30.812 171.826 30.812C173.14 30.812 174.004 30.272 174.292 29.264H175.876C175.444 31.154 173.968 32.216 171.79 32.216ZM171.718 24.368C170.242 24.368 169.306 25.25 169.09 26.798H174.166C174.166 25.34 173.212 24.368 171.718 24.368Z" fill="#121212"/>
<g filter="url(#filter0_d_112_6294)">
<path d="M549.319 104.874C545.837 108.654 515.624 106.366 504.764 126.57C493.904 146.774 483.044 184.375 472.184 192.186C461.324 199.997 450.464 178.018 439.604 163.178C428.744 148.339 417.885 140.639 407.025 138.492C396.165 136.344 385.305 139.749 374.445 143.605C363.585 147.461 352.725 151.769 341.865 159.688C331.005 167.607 320.145 179.139 309.285 172.723C298.425 166.308 287.565 141.946 276.705 140.667C265.845 139.388 254.986 161.192 244.126 167.833C233.266 174.474 222.406 165.952 211.546 175.273C200.686 184.594 189.826 211.758 178.966 208.128C168.106 204.498 157.246 170.073 146.386 173.815C135.526 177.557 127.513 148.192 116.653 163.178C105.793 178.164 99.4334 169.146 94.0034 163.178L75.9998 148.855" stroke="#4DAF01" stroke-width="1.5"/>
</g>
<defs>
<filter id="filter0_d_112_6294" x="68.2876" y="99.1905" width="488.829" height="119.336" filterUnits="userSpaceOnUse" color-interpolation-filters="sRGB">
<feFlood flood-opacity="0" result="BackgroundImageFix"/>
<feColorMatrix in="SourceAlpha" type="matrix" values="0 0 0 0 0 0 0 0 0 0 0 0 0 0 0 0 0 0 127 0" result="hardAlpha"/>
<feOffset dy="2.0701"/>
<feGaussianBlur stdDeviation="3.62267"/>
<feComposite in2="hardAlpha" operator="out"/>
<feColorMatrix type="matrix" values="0 0 0 0 0.00392157 0 0 0 0 0.643137 0 0 0 0 0.686275 0 0 0 0.47 0"/>
<feBlend mode="normal" in2="BackgroundImageFix" result="effect1_dropShadow_112_6294"/>
<feBlend mode="normal" in="SourceGraphic" in2="effect1_dropShadow_112_6294" result="shape"/>
</filter>
</defs>
</svg>
