<svg width="581" height="318" viewBox="0 0 581 318" fill="none" xmlns="http://www.w3.org/2000/svg">
<rect x="0.5" y="0.5" width="580" height="317" rx="11.5" fill="white"/>
<rect x="0.5" y="0.5" width="580" height="317" rx="11.5" stroke="#E2E2E2"/>
<path d="M18.1473 63.1242H16.4305V62.3599H18.9586V70.7793H18.1473V63.1242ZM20.593 66.5696C20.593 63.9591 21.8747 62.1952 23.9678 62.1952C26.0491 62.1952 27.3309 63.9591 27.3309 66.5696C27.3309 69.1918 26.0727 70.9322 23.9678 70.9322C21.8512 70.9322 20.593 69.1918 20.593 66.5696ZM21.4279 66.5696C21.4279 68.7567 22.3568 70.1678 23.9678 70.1678C25.5788 70.1678 26.5077 68.7567 26.5077 66.5696C26.5077 64.3706 25.5788 62.9713 23.9678 62.9713C22.3568 62.9713 21.4279 64.3706 21.4279 66.5696ZM28.6199 66.5696C28.6199 63.9591 29.9016 62.1952 31.9947 62.1952C34.076 62.1952 35.3578 63.9591 35.3578 66.5696C35.3578 69.1918 34.0995 70.9322 31.9947 70.9322C29.8781 70.9322 28.6199 69.1918 28.6199 66.5696ZM29.4547 66.5696C29.4547 68.7567 30.3837 70.1678 31.9947 70.1678C33.6057 70.1678 34.5346 68.7567 34.5346 66.5696C34.5346 64.3706 33.6057 62.9713 31.9947 62.9713C30.3837 62.9713 29.4547 64.3706 29.4547 66.5696Z" fill="#667085"/>
<line x1="44.3293" y1="66.7791" x2="565.706" y2="66.7791" stroke="#F2F4F7" stroke-width="0.979916" stroke-linecap="round"/>
<path d="M17.3727 104.088C17.3727 103.054 17.996 102.23 18.9955 101.889C18.1488 101.548 17.6667 100.855 17.6667 99.9845C17.6667 98.691 18.772 97.809 20.383 97.809C21.9823 97.809 23.0523 98.691 23.0523 99.9962C23.0523 100.878 22.582 101.572 21.7471 101.889C22.7231 102.195 23.3698 103.042 23.3698 104.1C23.3698 105.535 22.1586 106.522 20.3713 106.522C18.5839 106.522 17.3727 105.535 17.3727 104.088ZM18.4663 100.008C18.4663 100.937 19.2189 101.56 20.3713 101.56C21.5119 101.56 22.2527 100.96 22.2527 100.031C22.2527 99.126 21.5119 98.5616 20.3713 98.5616C19.2189 98.5616 18.4663 99.126 18.4663 100.008ZM18.2076 104.018C18.2076 105.064 19.0778 105.758 20.383 105.758C21.6648 105.758 22.5349 105.064 22.5349 104.018C22.5349 102.983 21.6883 102.313 20.3595 102.313C19.0543 102.313 18.2076 102.983 18.2076 104.018ZM24.6199 102.172C24.6199 99.5611 25.9016 97.7973 27.9947 97.7973C30.076 97.7973 31.3578 99.5611 31.3578 102.172C31.3578 104.794 30.0995 106.534 27.9947 106.534C25.8781 106.534 24.6199 104.794 24.6199 102.172ZM25.4547 102.172C25.4547 104.359 26.3837 105.77 27.9947 105.77C29.6057 105.77 30.5346 104.359 30.5346 102.172C30.5346 99.9727 29.6057 98.5734 27.9947 98.5734C26.3837 98.5734 25.4547 99.9727 25.4547 102.172Z" fill="#667085"/>
<line x1="40.3293" y1="102.382" x2="565.706" y2="102.382" stroke="#F2F4F7" stroke-width="0.979916" stroke-linecap="round"/>
<path d="M18.4871 133.949L20.5919 131.115H21.5797L19.369 134.043C19.7688 133.843 20.1333 133.761 20.5214 133.761C22.2735 133.761 23.4376 135.042 23.4376 136.689C23.4376 138.417 22.1324 139.675 20.4508 139.675C18.7575 139.675 17.4288 138.37 17.4288 136.689C17.4288 135.713 17.6992 135.03 18.4871 133.949ZM18.2872 136.7C18.2872 137.982 19.1691 138.911 20.4508 138.911C21.6973 138.911 22.591 137.982 22.591 136.7C22.591 135.419 21.6973 134.501 20.4508 134.501C19.1691 134.501 18.2872 135.419 18.2872 136.7ZM24.6199 135.324C24.6199 132.714 25.9016 130.95 27.9947 130.95C30.076 130.95 31.3578 132.714 31.3578 135.324C31.3578 137.947 30.0995 139.687 27.9947 139.687C25.8781 139.687 24.6199 137.947 24.6199 135.324ZM25.4547 135.324C25.4547 137.512 26.3837 138.923 27.9947 138.923C29.6057 138.923 30.5346 137.512 30.5346 135.324C30.5346 133.126 29.6057 131.726 27.9947 131.726C26.3837 131.726 25.4547 133.126 25.4547 135.324Z" fill="#667085"/>
<line x1="40.3293" y1="135.534" x2="565.706" y2="135.534" stroke="#F2F4F7" stroke-width="0.979916" stroke-linecap="round"/>
<path d="M23.3034 170.899H22.3156V172.687H21.4925V170.899H17.0711V170.147L21.1868 164.267H22.3156V170.147H23.3034V170.899ZM17.9883 170.147H21.4925V165.137L17.9883 170.147ZM24.6199 168.477C24.6199 165.866 25.9016 164.102 27.9947 164.102C30.076 164.102 31.3578 165.866 31.3578 168.477C31.3578 171.099 30.0995 172.839 27.9947 172.839C25.8781 172.839 24.6199 171.099 24.6199 168.477ZM25.4547 168.477C25.4547 170.664 26.3837 172.075 27.9947 172.075C29.6057 172.075 30.5346 170.664 30.5346 168.477C30.5346 166.278 29.6057 164.879 27.9947 164.879C26.3837 164.879 25.4547 166.278 25.4547 168.477Z" fill="#667085"/>
<line x1="40.3293" y1="168.687" x2="565.706" y2="168.687" stroke="#F2F4F7" stroke-width="0.979916" stroke-linecap="round"/>
<path d="M22.4496 205.839H16.8993V205.169L19.5921 202.817C21.1443 201.465 21.5441 200.877 21.5441 199.878C21.5441 198.737 20.8621 198.043 19.745 198.043C18.5808 198.043 17.8165 198.89 17.7812 200.195H16.9346C16.9816 198.431 18.0987 197.267 19.7567 197.267C21.3442 197.267 22.4025 198.29 22.4025 199.831C22.4025 201.053 21.8498 201.865 20.1683 203.335L18.2046 205.052H22.4496V205.839ZM23.6199 201.63C23.6199 199.019 24.9016 197.255 26.9947 197.255C29.076 197.255 30.3578 199.019 30.3578 201.63C30.3578 204.252 29.0995 205.992 26.9947 205.992C24.8781 205.992 23.6199 204.252 23.6199 201.63ZM24.4547 201.63C24.4547 203.817 25.3837 205.228 26.9947 205.228C28.6057 205.228 29.5346 203.817 29.5346 201.63C29.5346 199.431 28.6057 198.031 26.9947 198.031C25.3837 198.031 24.4547 199.431 24.4547 201.63Z" fill="#667085"/>
<line x1="39.3293" y1="201.84" x2="565.706" y2="201.84" stroke="#F2F4F7" stroke-width="0.979916" stroke-linecap="round"/>
<path d="M39.9772 234.782C39.9772 232.171 41.2589 230.408 43.352 230.408C45.4333 230.408 46.7151 232.171 46.7151 234.782C46.7151 237.404 45.4569 239.145 43.352 239.145C41.2354 239.145 39.9772 237.404 39.9772 234.782ZM40.8121 234.782C40.8121 236.969 41.741 238.38 43.352 238.38C44.963 238.38 45.8919 236.969 45.8919 234.782C45.8919 232.583 44.963 231.184 43.352 231.184C41.741 231.184 40.8121 232.583 40.8121 234.782Z" fill="#667085"/>
<line x1="55.6866" y1="234.992" x2="566.063" y2="234.992" stroke="#F2F4F7" stroke-width="0.979916" stroke-linecap="round"/>
<path d="M65.4774 256.321H64.6425V247.902H65.4774L68.5465 255.322L71.6156 247.902H72.4622V256.321H71.6274V252.323C71.6274 250.853 71.6509 250.207 71.6979 249.63L68.9581 256.321H68.1467L65.4068 249.666C65.4539 249.983 65.4774 250.912 65.4774 252.194V256.321ZM75.9649 256.462C74.7537 256.462 74.0364 255.78 74.0364 254.781C74.0364 253.734 74.836 253.076 76.1648 252.97L78.0462 252.817V252.629C78.0462 251.512 77.3759 251.159 76.5411 251.159C75.5533 251.159 74.9654 251.606 74.9654 252.37H74.2245C74.2245 251.218 75.1653 250.477 76.5646 250.477C77.8816 250.477 78.8458 251.136 78.8458 252.641V256.321H78.1638L78.058 255.322C77.7052 256.039 76.9291 256.462 75.9649 256.462ZM76.153 255.804C77.3524 255.804 78.0462 254.969 78.0462 253.734V253.429L76.3647 253.558C75.2946 253.652 74.8595 254.122 74.8595 254.757C74.8595 255.451 75.3769 255.804 76.153 255.804ZM79.7715 258.802V258.132H80.3947C80.8886 258.132 81.3825 258.097 81.6647 257.333L81.9116 256.662L79.6068 250.63H80.4653L82.2997 255.592L84.0988 250.63H84.9337L82.3232 257.627C81.9939 258.52 81.4412 258.885 80.6299 258.885C80.2889 258.885 80.0302 258.861 79.7715 258.802Z" fill="#667085"/>
<path d="M145.454 254.005V253.676H146.277V254.005C146.277 255.004 146.818 255.663 147.841 255.663C148.911 255.663 149.405 254.993 149.405 253.993V247.902H150.252V254.017C150.252 255.545 149.264 256.462 147.841 256.462C146.324 256.462 145.454 255.463 145.454 254.005ZM156.058 250.63H156.869V256.321H156.164L156.058 255.357C155.74 256.016 154.952 256.462 154.059 256.462C152.718 256.462 151.989 255.545 151.989 254.158V250.618H152.812V253.899C152.812 255.251 153.412 255.733 154.317 255.733C155.411 255.733 156.058 255.004 156.058 253.652V250.63ZM159.371 256.321H158.559V250.63H159.265L159.383 251.618C159.759 250.889 160.511 250.477 161.334 250.477C162.898 250.477 163.545 251.406 163.545 252.841V256.321H162.734V253.017C162.734 251.688 162.134 251.218 161.193 251.218C160.029 251.218 159.371 252.065 159.371 253.346V256.321Z" fill="#667085"/>
<path d="M224.764 254.005V253.676H225.587V254.005C225.587 255.004 226.128 255.663 227.151 255.663C228.221 255.663 228.715 254.993 228.715 253.993V247.902H229.562V254.017C229.562 255.545 228.574 256.462 227.151 256.462C225.634 256.462 224.764 255.463 224.764 254.005ZM235.368 250.63H236.179V256.321H235.474L235.368 255.357C235.051 256.016 234.263 256.462 233.369 256.462C232.028 256.462 231.299 255.545 231.299 254.158V250.618H232.123V253.899C232.123 255.251 232.722 255.733 233.628 255.733C234.721 255.733 235.368 255.004 235.368 253.652V250.63ZM238.716 256.321H237.905V247.749H238.716V256.321Z" fill="#667085"/>
<path d="M300.056 256.321H299.197L302.29 247.902H303.336L306.464 256.321H305.582L304.759 254.087H300.879L300.056 256.321ZM302.701 249.09L301.138 253.346H304.489L302.913 249.09C302.878 248.972 302.819 248.831 302.807 248.748C302.796 248.819 302.748 248.972 302.701 249.09ZM311.353 250.63H312.164V256.321H311.459L311.353 255.357C311.036 256.016 310.248 256.462 309.354 256.462C308.013 256.462 307.284 255.545 307.284 254.158V250.618H308.108V253.899C308.108 255.251 308.707 255.733 309.613 255.733C310.706 255.733 311.353 255.004 311.353 253.652V250.63ZM313.467 253.311C313.467 251.759 314.466 250.477 316.136 250.477C317.124 250.477 317.876 250.936 318.241 251.771L318.323 250.63H319.029V256.145C319.029 257.838 317.947 258.944 316.277 258.944C314.819 258.944 313.796 258.12 313.572 256.745H314.384C314.56 257.662 315.266 258.203 316.289 258.203C317.453 258.203 318.229 257.415 318.229 256.227V254.875C317.841 255.675 317.053 256.145 316.077 256.145C314.454 256.145 313.467 254.863 313.467 253.311ZM314.278 253.299C314.278 254.463 314.995 255.416 316.195 255.416C317.429 255.416 318.158 254.522 318.158 253.299C318.158 252.088 317.453 251.194 316.206 251.194C314.983 251.194 314.278 252.147 314.278 253.299Z" fill="#667085"/>
<path d="M379.966 250.089C379.966 248.678 381.095 247.749 382.789 247.749C384.306 247.749 385.305 248.596 385.434 250.007H384.576C384.482 249.054 383.835 248.513 382.777 248.513C381.589 248.513 380.813 249.125 380.813 250.077C380.813 250.818 381.248 251.288 382.13 251.512L383.576 251.865C384.893 252.182 385.575 252.935 385.575 254.075C385.575 255.533 384.447 256.462 382.706 256.462C381.072 256.462 379.966 255.604 379.861 254.228H380.731C380.778 255.11 381.554 255.686 382.706 255.686C383.941 255.686 384.729 255.087 384.729 254.122C384.729 253.37 384.306 252.876 383.4 252.664L381.977 252.311C380.66 251.994 379.966 251.241 379.966 250.089ZM389.309 256.462C387.639 256.462 386.522 255.263 386.522 253.476C386.522 251.7 387.627 250.477 389.25 250.477C390.79 250.477 391.837 251.571 391.837 253.182V253.581H387.31C387.368 254.969 388.098 255.769 389.32 255.769C390.249 255.769 390.849 255.369 391.061 254.616H391.837C391.531 255.816 390.649 256.462 389.309 256.462ZM389.25 251.171C388.18 251.171 387.474 251.876 387.333 252.993H391.025C391.025 251.9 390.32 251.171 389.25 251.171ZM393.134 258.802V250.63H393.84L393.922 251.782C394.322 250.9 395.121 250.477 396.074 250.477C397.72 250.477 398.708 251.735 398.708 253.452C398.708 255.169 397.755 256.462 396.074 256.462C395.11 256.462 394.345 256.051 393.945 255.228V258.802H393.134ZM393.957 253.476C393.957 254.781 394.686 255.733 395.933 255.733C397.167 255.733 397.885 254.781 397.885 253.476C397.885 252.159 397.167 251.218 395.933 251.218C394.686 251.218 393.957 252.159 393.957 253.476Z" fill="#667085"/>
<path d="M467.31 252.112C467.31 254.663 465.652 256.462 463.301 256.462C460.937 256.462 459.291 254.663 459.291 252.112C459.291 249.56 460.949 247.749 463.301 247.749C465.664 247.749 467.31 249.548 467.31 252.112ZM466.44 252.112C466.44 250.007 465.158 248.572 463.301 248.572C461.443 248.572 460.173 250.007 460.173 252.112C460.173 254.216 461.443 255.651 463.301 255.651C465.158 255.651 466.44 254.205 466.44 252.112ZM468.269 253.487C468.269 251.7 469.363 250.477 471.021 250.477C472.338 250.477 473.302 251.241 473.526 252.417H472.714C472.503 251.629 471.821 251.194 471.033 251.194C469.88 251.194 469.069 252.076 469.069 253.476C469.069 254.828 469.822 255.733 470.974 255.733C471.821 255.733 472.503 255.263 472.726 254.534H473.549C473.279 255.698 472.267 256.462 470.974 256.462C469.363 256.462 468.269 255.275 468.269 253.487ZM476.084 256.321H475.284V251.312H474.143V250.63H475.284V248.831H476.084V250.63H477.224V251.312H476.084V256.321Z" fill="#667085"/>
<path d="M539.051 256.321H538.205V247.902H539.063L543.696 254.91V247.902H544.531V256.321H543.696L539.051 249.313V256.321ZM546.011 253.476C546.011 251.735 547.234 250.477 548.904 250.477C550.574 250.477 551.797 251.735 551.797 253.476C551.797 255.204 550.574 256.462 548.904 256.462C547.234 256.462 546.011 255.204 546.011 253.476ZM546.834 253.464C546.834 254.804 547.681 255.733 548.904 255.733C550.115 255.733 550.974 254.804 550.974 253.464C550.974 252.147 550.115 251.206 548.904 251.206C547.681 251.206 546.834 252.147 546.834 253.464ZM554.429 256.321L552.101 250.63H552.971L554.441 254.299C554.594 254.71 554.747 255.098 554.853 255.475C554.958 255.087 555.111 254.71 555.276 254.299L556.769 250.63H557.604L555.241 256.321H554.429Z" fill="#667085"/>
<path d="M54 155C54 150.582 57.5817 147 62 147H86C90.4183 147 94 150.582 94 155V235H54V155Z" fill="#CCE2FF"/>
<path d="M54 221C54 218.791 55.7909 217 58 217H90C92.2091 217 94 218.791 94 221V235H54V221Z" fill="#014DAF"/>
<path d="M134 123C134 118.582 137.582 115 142 115H166C170.418 115 174 118.582 174 123V235H134V123Z" fill="#CCE2FF"/>
<path d="M134 203C134 200.791 135.791 199 138 199H170C172.209 199 174 200.791 174 203V235H134V203Z" fill="#014DAF"/>
<g clip-path="url(#clip0_112_6267)">
<path d="M289 144C289 139.582 292.582 136 297 136H321C325.418 136 329 139.582 329 144V235H289V144Z" fill="#CCE2FF"/>
<path d="M289 224C289 221.791 290.791 220 293 220H325C327.209 220 329 221.791 329 224V256H289V224Z" fill="#014DAF"/>
</g>
<path d="M448 106C448 101.582 451.582 98 456 98H480C484.418 98 488 101.582 488 106V235H448V106Z" fill="#CCE2FF"/>
<path d="M448 209C448 206.791 449.791 205 452 205H484C486.209 205 488 206.791 488 209V235H448V209Z" fill="#014DAF"/>
<g clip-path="url(#clip1_112_6267)">
<path d="M526 119C526 114.582 529.582 111 534 111H558C562.418 111 566 114.582 566 119V235H526V119Z" fill="#CCE2FF"/>
<path d="M526 222C526 219.791 527.791 218 530 218H562C564.209 218 566 219.791 566 222V248H526V222Z" fill="#014DAF"/>
</g>
<g clip-path="url(#clip2_112_6267)">
<path d="M369 160C369 155.582 372.582 152 377 152H401C405.418 152 409 155.582 409 160V235H369V160Z" fill="#CCE2FF"/>
<path d="M369 220C369 217.791 370.791 216 373 216H405C407.209 216 409 217.791 409 220V252H369V220Z" fill="#014DAF"/>
</g>
<path d="M212 189C212 184.582 215.582 181 220 181H244C248.418 181 252 184.582 252 189V235H212V189Z" fill="#CCE2FF"/>
<path d="M212 227C212 224.791 213.791 223 216 223H248C250.209 223 252 224.791 252 227V235H212V227Z" fill="#014DAF"/>
<path d="M19.24 32H17.512V18.986H19.24L23.722 29.93L28.204 18.986H29.968V32H28.24V26.852C28.24 24.422 28.258 23.54 28.348 22.622L24.55 32H22.894L19.114 22.658C19.204 23.288 19.24 24.62 19.24 26.438V32ZM32.1343 27.59C32.1343 24.872 34.0783 22.964 36.7243 22.964C39.3523 22.964 41.2963 24.872 41.2963 27.59C41.2963 30.308 39.3523 32.216 36.7243 32.216C34.0783 32.216 32.1343 30.308 32.1343 27.59ZM33.8443 27.59C33.8443 29.426 35.0143 30.704 36.7243 30.704C38.4163 30.704 39.6043 29.426 39.6043 27.59C39.6043 25.754 38.4163 24.476 36.7243 24.476C35.0143 24.476 33.8443 25.754 33.8443 27.59ZM44.8613 32H43.1693V23.198H44.6993L44.8793 24.548C45.4373 23.54 46.5533 22.946 47.7953 22.946C50.1173 22.946 51.1793 24.368 51.1793 26.618V32H49.4873V26.996C49.4873 25.214 48.6593 24.494 47.3633 24.494C45.7793 24.494 44.8613 25.628 44.8613 27.338V32ZM56.0068 32H54.3148V24.62H52.5868V23.198H54.3148V20.444H56.0068V23.198H57.7348V24.62H56.0068V32ZM60.9453 31.982H59.2533V18.752H60.9453V24.548C61.5033 23.594 62.5653 22.946 63.9333 22.946C66.1833 22.946 67.2633 24.368 67.2633 26.618V32H65.5713V26.996C65.5713 25.214 64.7253 24.494 63.4653 24.494C61.8273 24.494 60.9453 25.682 60.9453 27.194V31.982ZM71.3348 32H69.6428V18.752H71.3348V32ZM72.9796 35.942V34.556H74.1136C74.9236 34.556 75.5716 34.43 75.9856 33.314L76.2916 32.468L72.7456 23.198H74.5276L77.0836 30.29L79.6936 23.198H81.4396L77.2816 33.98C76.6876 35.492 75.8056 36.122 74.4556 36.122C73.8976 36.122 73.4296 36.05 72.9796 35.942ZM89.7643 18.986V32H88.0003V18.986H89.7643ZM91.7911 29.444H93.4111C93.4111 30.344 94.0951 30.884 95.2111 30.884C96.3991 30.884 97.0831 30.398 97.0831 29.588C97.0831 28.994 96.7951 28.634 95.8771 28.4L94.3291 28.04C92.7631 27.662 92.0251 26.888 92.0251 25.592C92.0251 23.972 93.3931 22.946 95.3371 22.946C97.2631 22.946 98.5231 24.026 98.5591 25.7H96.9391C96.9031 24.818 96.3091 24.26 95.2831 24.26C94.2211 24.26 93.6271 24.728 93.6271 25.538C93.6271 26.132 94.0591 26.528 94.9231 26.744L96.4711 27.122C97.9651 27.482 98.7031 28.166 98.7031 29.48C98.7031 31.154 97.2631 32.216 95.1751 32.216C93.1051 32.216 91.7911 31.118 91.7911 29.444ZM99.8595 29.444H101.479C101.479 30.344 102.163 30.884 103.279 30.884C104.467 30.884 105.151 30.398 105.151 29.588C105.151 28.994 104.863 28.634 103.945 28.4L102.397 28.04C100.831 27.662 100.093 26.888 100.093 25.592C100.093 23.972 101.461 22.946 103.405 22.946C105.331 22.946 106.591 24.026 106.627 25.7H105.007C104.971 24.818 104.377 24.26 103.351 24.26C102.289 24.26 101.695 24.728 101.695 25.538C101.695 26.132 102.127 26.528 102.991 26.744L104.539 27.122C106.033 27.482 106.771 28.166 106.771 29.48C106.771 31.154 105.331 32.216 103.243 32.216C101.173 32.216 99.8595 31.118 99.8595 29.444ZM114.732 23.198H116.406V32H114.894L114.714 30.668C114.21 31.586 113.04 32.216 111.744 32.216C109.692 32.216 108.54 30.83 108.54 28.67V23.198H110.232V28.112C110.232 30.002 111.042 30.722 112.338 30.722C113.886 30.722 114.732 29.732 114.732 27.842V23.198ZM121.435 32.216C119.545 32.216 118.429 31.154 118.429 29.552C118.429 27.932 119.635 26.924 121.705 26.762L124.477 26.546V26.294C124.477 24.818 123.595 24.296 122.407 24.296C120.985 24.296 120.175 24.926 120.175 25.988H118.699C118.699 24.152 120.211 22.946 122.479 22.946C124.657 22.946 126.133 24.098 126.133 26.474V32H124.693L124.513 30.578C124.063 31.586 122.857 32.216 121.435 32.216ZM121.921 30.902C123.523 30.902 124.495 29.858 124.495 28.202V27.734L122.245 27.914C120.751 28.058 120.139 28.634 120.139 29.498C120.139 30.434 120.823 30.902 121.921 30.902ZM130.168 32H128.476V23.198H130.006L130.186 24.548C130.744 23.54 131.86 22.946 133.102 22.946C135.424 22.946 136.486 24.368 136.486 26.618V32H134.794V26.996C134.794 25.214 133.966 24.494 132.67 24.494C131.086 24.494 130.168 25.628 130.168 27.338V32ZM138.253 27.608C138.253 24.854 139.999 22.946 142.573 22.946C144.787 22.946 146.335 24.206 146.641 26.168H144.949C144.661 25.052 143.761 24.458 142.627 24.458C141.025 24.458 139.927 25.682 139.927 27.59C139.927 29.48 140.953 30.704 142.555 30.704C143.761 30.704 144.661 30.074 144.967 29.03H146.659C146.317 30.938 144.679 32.216 142.555 32.216C139.963 32.216 138.253 30.38 138.253 27.608ZM152.243 32.216C149.651 32.216 147.869 30.344 147.869 27.608C147.869 24.854 149.615 22.946 152.171 22.946C154.673 22.946 156.311 24.674 156.311 27.284V27.914L149.507 27.932C149.633 29.786 150.605 30.812 152.279 30.812C153.593 30.812 154.457 30.272 154.745 29.264H156.329C155.897 31.154 154.421 32.216 152.243 32.216ZM152.171 24.368C150.695 24.368 149.759 25.25 149.543 26.798H154.619C154.619 25.34 153.665 24.368 152.171 24.368Z" fill="#121212"/>
<line y1="278.65" x2="581" y2="278.65" stroke="#E2E2E2" stroke-width="0.7"/>
<circle cx="220" cy="298" r="4" fill="#014DAF"/>
<path d="M232.32 298.844H229.908V302H229.044V293.408H232.32C233.976 293.408 235.02 294.488 235.02 296.108C235.02 297.668 233.964 298.844 232.32 298.844ZM232.2 294.188H229.908V298.064H232.152C233.4 298.064 234.12 297.272 234.12 296.096C234.12 294.908 233.388 294.188 232.2 294.188ZM238.413 302.144C236.709 302.144 235.569 300.92 235.569 299.096C235.569 297.284 236.697 296.036 238.353 296.036C239.925 296.036 240.993 297.152 240.993 298.796V299.204H236.373C236.433 300.62 237.177 301.436 238.425 301.436C239.373 301.436 239.985 301.028 240.201 300.26H240.993C240.681 301.484 239.781 302.144 238.413 302.144ZM238.353 296.744C237.261 296.744 236.541 297.464 236.397 298.604H240.165C240.165 297.488 239.445 296.744 238.353 296.744ZM245.353 296.12V296.864H244.897C243.829 296.864 243.145 297.584 243.145 298.688V302H242.317V296.192H243.097L243.157 297.092C243.385 296.468 243.997 296.06 244.813 296.06C244.993 296.06 245.149 296.072 245.353 296.12ZM245.962 300.368H246.754C246.754 301.04 247.258 301.46 248.074 301.46C248.974 301.46 249.502 301.076 249.502 300.452C249.502 299.972 249.262 299.696 248.578 299.528L247.582 299.276C246.574 299.024 246.082 298.496 246.082 297.704C246.082 296.684 246.934 296.036 248.182 296.036C249.406 296.036 250.198 296.708 250.234 297.788H249.43C249.406 297.116 248.938 296.72 248.158 296.72C247.342 296.72 246.886 297.068 246.886 297.692C246.886 298.136 247.198 298.448 247.834 298.604L248.83 298.856C249.838 299.108 250.294 299.576 250.294 300.416C250.294 301.46 249.406 302.144 248.086 302.144C246.778 302.144 245.962 301.448 245.962 300.368ZM251.249 299.096C251.249 297.32 252.497 296.036 254.201 296.036C255.905 296.036 257.153 297.32 257.153 299.096C257.153 300.86 255.905 302.144 254.201 302.144C252.497 302.144 251.249 300.86 251.249 299.096ZM252.089 299.084C252.089 300.452 252.953 301.4 254.201 301.4C255.437 301.4 256.313 300.452 256.313 299.084C256.313 297.74 255.437 296.78 254.201 296.78C252.953 296.78 252.089 297.74 252.089 299.084ZM259.305 302H258.477V296.192H259.197L259.317 297.2C259.701 296.456 260.469 296.036 261.309 296.036C262.905 296.036 263.565 296.984 263.565 298.448V302H262.737V298.628C262.737 297.272 262.125 296.792 261.165 296.792C259.977 296.792 259.305 297.656 259.305 298.964V302ZM266.884 302.144C265.648 302.144 264.916 301.448 264.916 300.428C264.916 299.36 265.732 298.688 267.088 298.58L269.008 298.424V298.232C269.008 297.092 268.324 296.732 267.472 296.732C266.464 296.732 265.864 297.188 265.864 297.968H265.108C265.108 296.792 266.068 296.036 267.496 296.036C268.84 296.036 269.824 296.708 269.824 298.244V302H269.128L269.02 300.98C268.66 301.712 267.868 302.144 266.884 302.144ZM267.076 301.472C268.3 301.472 269.008 300.62 269.008 299.36V299.048L267.292 299.18C266.2 299.276 265.756 299.756 265.756 300.404C265.756 301.112 266.284 301.472 267.076 301.472ZM272.349 302H271.521V293.252H272.349V302ZM274.518 294.596C274.182 294.596 273.906 294.32 273.906 293.984C273.906 293.648 274.182 293.36 274.518 293.36C274.854 293.36 275.142 293.648 275.142 293.984C275.142 294.32 274.854 294.596 274.518 294.596ZM274.11 302V296.192H274.938V302H274.11ZM280.649 302H276.269V301.34L279.629 296.888H276.269V296.192H280.649V296.864L277.277 301.304H280.649V302ZM284.234 302.144C282.53 302.144 281.39 300.92 281.39 299.096C281.39 297.284 282.518 296.036 284.174 296.036C285.746 296.036 286.814 297.152 286.814 298.796V299.204H282.194C282.254 300.62 282.998 301.436 284.246 301.436C285.194 301.436 285.806 301.028 286.022 300.26H286.814C286.502 301.484 285.602 302.144 284.234 302.144ZM284.174 296.744C283.082 296.744 282.362 297.464 282.218 298.604H285.986C285.986 297.488 285.266 296.744 284.174 296.744ZM290.417 302.144C288.725 302.144 287.729 300.848 287.729 299.108C287.729 297.356 288.725 296.036 290.453 296.036C291.413 296.036 292.181 296.456 292.589 297.296V293.252H293.417V302H292.697L292.613 300.812C292.205 301.712 291.389 302.144 290.417 302.144ZM290.561 301.388C291.833 301.388 292.577 300.428 292.577 299.084C292.577 297.752 291.833 296.78 290.561 296.78C289.301 296.78 288.569 297.752 288.569 299.084C288.569 300.428 289.301 301.388 290.561 301.388Z" fill="#808080"/>
<circle cx="322" cy="298" r="4" fill="#CCE2FF"/>
<path d="M331.908 293.408V302H331.044V293.408H331.908ZM334.645 302H333.817V296.192H334.537L334.657 297.2C335.041 296.456 335.809 296.036 336.649 296.036C338.245 296.036 338.905 296.984 338.905 298.448V302H338.077V298.628C338.077 297.272 337.465 296.792 336.505 296.792C335.317 296.792 334.645 297.656 334.645 298.964V302ZM339.993 300.368H340.785C340.785 301.04 341.289 301.46 342.105 301.46C343.005 301.46 343.533 301.076 343.533 300.452C343.533 299.972 343.293 299.696 342.609 299.528L341.613 299.276C340.605 299.024 340.113 298.496 340.113 297.704C340.113 296.684 340.965 296.036 342.213 296.036C343.437 296.036 344.229 296.708 344.265 297.788H343.461C343.437 297.116 342.969 296.72 342.189 296.72C341.373 296.72 340.917 297.068 340.917 297.692C340.917 298.136 341.229 298.448 341.865 298.604L342.861 298.856C343.869 299.108 344.325 299.576 344.325 300.416C344.325 301.46 343.437 302.144 342.117 302.144C340.809 302.144 339.993 301.448 339.993 300.368ZM347.02 302H346.204V296.888H345.04V296.192H346.204V294.356H347.02V296.192H348.184V296.888H347.02V302ZM350.837 302.144C349.601 302.144 348.869 301.448 348.869 300.428C348.869 299.36 349.685 298.688 351.041 298.58L352.961 298.424V298.232C352.961 297.092 352.277 296.732 351.425 296.732C350.417 296.732 349.817 297.188 349.817 297.968H349.061C349.061 296.792 350.021 296.036 351.449 296.036C352.793 296.036 353.777 296.708 353.777 298.244V302H353.081L352.973 300.98C352.613 301.712 351.821 302.144 350.837 302.144ZM351.029 301.472C352.253 301.472 352.961 300.62 352.961 299.36V299.048L351.245 299.18C350.153 299.276 349.709 299.756 349.709 300.404C349.709 301.112 350.237 301.472 351.029 301.472ZM356.266 302H355.438V296.192H356.158L356.278 297.2C356.662 296.456 357.43 296.036 358.27 296.036C359.866 296.036 360.526 296.984 360.526 298.448V302H359.698V298.628C359.698 297.272 359.086 296.792 358.126 296.792C356.938 296.792 356.266 297.656 356.266 298.964V302ZM363.509 302H362.693V296.888H361.529V296.192H362.693V294.356H363.509V296.192H364.673V296.888H363.509V302Z" fill="#808080"/>
<defs>
<clipPath id="clip0_112_6267">
<path d="M289 144C289 139.582 292.582 136 297 136H321C325.418 136 329 139.582 329 144V235H289V144Z" fill="white"/>
</clipPath>
<clipPath id="clip1_112_6267">
<path d="M526 119C526 114.582 529.582 111 534 111H558C562.418 111 566 114.582 566 119V235H526V119Z" fill="white"/>
</clipPath>
<clipPath id="clip2_112_6267">
<path d="M369 160C369 155.582 372.582 152 377 152H401C405.418 152 409 155.582 409 160V235H369V160Z" fill="white"/>
</clipPath>
</defs>
</svg>
