<svg width="581" height="318" viewBox="0 0 581 318" fill="none" xmlns="http://www.w3.org/2000/svg">
<rect x="0.5" y="0.5" width="580" height="317" rx="11.5" fill="white"/>
<rect x="0.5" y="0.5" width="580" height="317" rx="11.5" stroke="#E2E2E2"/>
<path d="M22.912 32.198C19.204 32.198 16.738 29.534 16.738 25.502C16.738 21.488 19.276 18.77 23.002 18.77C25.936 18.77 28.186 20.516 28.672 23.18H26.782C26.296 21.488 24.838 20.462 22.948 20.462C20.32 20.462 18.592 22.442 18.592 25.484C18.592 28.526 20.32 30.506 22.948 30.506C24.856 30.506 26.368 29.48 26.854 27.878H28.726C28.168 30.47 25.846 32.198 22.912 32.198ZM32.9992 32.216C31.1092 32.216 29.9932 31.154 29.9932 29.552C29.9932 27.932 31.1992 26.924 33.2692 26.762L36.0412 26.546V26.294C36.0412 24.818 35.1592 24.296 33.9712 24.296C32.5492 24.296 31.7392 24.926 31.7392 25.988H30.2632C30.2632 24.152 31.7752 22.946 34.0432 22.946C36.2212 22.946 37.6972 24.098 37.6972 26.474V32H36.2572L36.0772 30.578C35.6272 31.586 34.4212 32.216 32.9992 32.216ZM33.4852 30.902C35.0872 30.902 36.0592 29.858 36.0592 28.202V27.734L33.8092 27.914C32.3152 28.058 31.7032 28.634 31.7032 29.498C31.7032 30.434 32.3872 30.902 33.4852 30.902ZM45.0804 23.126V24.674H44.3244C42.7224 24.674 41.7324 25.646 41.7324 27.338V32H40.0404V23.216H41.6244L41.7324 24.548C42.0924 23.63 42.9744 23.018 44.1804 23.018C44.4864 23.018 44.7384 23.054 45.0804 23.126ZM49.879 32.216C47.323 32.216 45.775 30.308 45.775 27.626C45.775 24.926 47.341 22.946 49.951 22.946C51.301 22.946 52.435 23.54 53.029 24.62V18.752H54.703V32H53.191L53.047 30.398C52.471 31.604 51.283 32.216 49.879 32.216ZM50.221 30.686C51.949 30.686 53.011 29.408 53.011 27.572C53.011 25.772 51.949 24.476 50.221 24.476C48.493 24.476 47.485 25.772 47.485 27.572C47.485 29.39 48.493 30.686 50.221 30.686ZM61.5978 22.496C61.5978 20.264 63.3978 18.752 66.0798 18.752C68.5638 18.752 70.1658 20.138 70.3098 22.388H68.5278C68.4378 21.092 67.5198 20.336 66.0618 20.336C64.4238 20.336 63.3618 21.164 63.3618 22.442C63.3618 23.486 63.9558 24.116 65.1798 24.404L67.3218 24.908C69.4458 25.394 70.5258 26.546 70.5258 28.382C70.5258 30.722 68.7078 32.216 65.9358 32.216C63.2898 32.216 61.5258 30.83 61.4178 28.598H63.2178C63.2538 29.84 64.2978 30.632 65.9358 30.632C67.6638 30.632 68.7618 29.822 68.7618 28.526C68.7618 27.5 68.2038 26.852 66.9618 26.564L64.8198 26.078C62.6958 25.592 61.5978 24.368 61.5978 22.496ZM74.9385 32H73.2465V24.62H71.5185V23.198H73.2465V20.444H74.9385V23.198H76.6665V24.62H74.9385V32ZM80.6535 32.216C78.7635 32.216 77.6475 31.154 77.6475 29.552C77.6475 27.932 78.8535 26.924 80.9235 26.762L83.6955 26.546V26.294C83.6955 24.818 82.8135 24.296 81.6255 24.296C80.2035 24.296 79.3935 24.926 79.3935 25.988H77.9175C77.9175 24.152 79.4295 22.946 81.6975 22.946C83.8755 22.946 85.3515 24.098 85.3515 26.474V32H83.9115L83.7315 30.578C83.2815 31.586 82.0755 32.216 80.6535 32.216ZM81.1395 30.902C82.7415 30.902 83.7135 29.858 83.7135 28.202V27.734L81.4635 27.914C79.9695 28.058 79.3575 28.634 79.3575 29.498C79.3575 30.434 80.0415 30.902 81.1395 30.902ZM90.0381 32H88.3461V24.62H86.6181V23.198H88.3461V20.444H90.0381V23.198H91.7661V24.62H90.0381V32ZM99.3685 23.198H101.043V32H99.5305L99.3505 30.668C98.8465 31.586 97.6765 32.216 96.3805 32.216C94.3285 32.216 93.1765 30.83 93.1765 28.67V23.198H94.8685V28.112C94.8685 30.002 95.6785 30.722 96.9745 30.722C98.5225 30.722 99.3685 29.732 99.3685 27.842V23.198ZM102.602 29.444H104.222C104.222 30.344 104.906 30.884 106.022 30.884C107.21 30.884 107.894 30.398 107.894 29.588C107.894 28.994 107.606 28.634 106.688 28.4L105.14 28.04C103.574 27.662 102.836 26.888 102.836 25.592C102.836 23.972 104.204 22.946 106.148 22.946C108.074 22.946 109.334 24.026 109.37 25.7H107.75C107.714 24.818 107.12 24.26 106.094 24.26C105.032 24.26 104.438 24.728 104.438 25.538C104.438 26.132 104.87 26.528 105.734 26.744L107.282 27.122C108.776 27.482 109.514 28.166 109.514 29.48C109.514 31.154 108.074 32.216 105.986 32.216C103.916 32.216 102.602 31.118 102.602 29.444ZM120.902 32H116.6V18.986H120.83C124.718 18.986 127.346 21.614 127.346 25.502C127.346 29.372 124.754 32 120.902 32ZM120.704 20.606H118.364V30.362H120.776C123.674 30.362 125.51 28.49 125.51 25.502C125.51 22.478 123.674 20.606 120.704 20.606ZM130.13 21.11C129.518 21.11 129.014 20.606 129.014 19.994C129.014 19.364 129.518 18.878 130.13 18.878C130.742 18.878 131.246 19.364 131.246 19.994C131.246 20.606 130.742 21.11 130.13 21.11ZM129.302 32V23.198H130.994V32H129.302ZM132.731 29.444H134.351C134.351 30.344 135.035 30.884 136.151 30.884C137.339 30.884 138.023 30.398 138.023 29.588C138.023 28.994 137.735 28.634 136.817 28.4L135.269 28.04C133.703 27.662 132.965 26.888 132.965 25.592C132.965 23.972 134.333 22.946 136.277 22.946C138.203 22.946 139.463 24.026 139.499 25.7H137.879C137.843 24.818 137.249 24.26 136.223 24.26C135.161 24.26 134.567 24.728 134.567 25.538C134.567 26.132 134.999 26.528 135.863 26.744L137.411 27.122C138.905 27.482 139.643 28.166 139.643 29.48C139.643 31.154 138.203 32.216 136.115 32.216C134.045 32.216 132.731 31.118 132.731 29.444ZM144.003 32H142.311V24.62H140.583V23.198H142.311V20.444H144.003V23.198H145.731V24.62H144.003V32ZM152.289 23.126V24.674H151.533C149.931 24.674 148.941 25.646 148.941 27.338V32H147.249V23.216H148.833L148.941 24.548C149.301 23.63 150.183 23.018 151.389 23.018C151.695 23.018 151.947 23.054 152.289 23.126ZM154.704 21.11C154.092 21.11 153.588 20.606 153.588 19.994C153.588 19.364 154.092 18.878 154.704 18.878C155.316 18.878 155.82 19.364 155.82 19.994C155.82 20.606 155.316 21.11 154.704 21.11ZM153.876 32V23.198H155.568V32H153.876ZM159.555 32H158.025V18.752H159.717V24.71C160.293 23.558 161.481 22.946 162.921 22.946C165.441 22.946 166.953 24.926 166.953 27.644C166.953 30.308 165.369 32.216 162.813 32.216C161.427 32.216 160.257 31.604 159.681 30.398L159.555 32ZM159.735 27.572C159.735 29.408 160.779 30.686 162.507 30.686C164.235 30.686 165.261 29.39 165.261 27.572C165.261 25.772 164.235 24.476 162.507 24.476C160.779 24.476 159.735 25.772 159.735 27.572ZM174.691 23.198H176.365V32H174.853L174.673 30.668C174.169 31.586 172.999 32.216 171.703 32.216C169.651 32.216 168.499 30.83 168.499 28.67V23.198H170.191V28.112C170.191 30.002 171.001 30.722 172.297 30.722C173.845 30.722 174.691 29.732 174.691 27.842V23.198ZM181.304 32H179.612V24.62H177.884V23.198H179.612V20.444H181.304V23.198H183.032V24.62H181.304V32ZM185.378 21.11C184.766 21.11 184.262 20.606 184.262 19.994C184.262 19.364 184.766 18.878 185.378 18.878C185.99 18.878 186.494 19.364 186.494 19.994C186.494 20.606 185.99 21.11 185.378 21.11ZM184.55 32V23.198H186.242V32H184.55ZM188.123 27.59C188.123 24.872 190.067 22.964 192.713 22.964C195.341 22.964 197.285 24.872 197.285 27.59C197.285 30.308 195.341 32.216 192.713 32.216C190.067 32.216 188.123 30.308 188.123 27.59ZM189.833 27.59C189.833 29.426 191.003 30.704 192.713 30.704C194.405 30.704 195.593 29.426 195.593 27.59C195.593 25.754 194.405 24.476 192.713 24.476C191.003 24.476 189.833 25.754 189.833 27.59ZM200.85 32H199.158V23.198H200.688L200.868 24.548C201.426 23.54 202.542 22.946 203.784 22.946C206.106 22.946 207.168 24.368 207.168 26.618V32H205.476V26.996C205.476 25.214 204.648 24.494 203.352 24.494C201.768 24.494 200.85 25.628 200.85 27.338V32Z" fill="#121212"/>
<path d="M288 51.0005C288 48.7914 286.208 46.9925 284.001 47.0766C264.635 47.8146 245.822 53.9004 229.665 64.6962C212.398 76.2337 198.94 92.6325 190.993 111.819C183.045 131.005 180.966 152.117 185.018 172.485C189.069 192.853 199.069 211.562 213.754 226.247C228.438 240.931 247.148 250.931 267.516 254.983C287.884 259.034 308.996 256.955 328.182 249.008C347.368 241.061 363.767 227.603 375.304 210.335C386.1 194.178 392.186 175.365 392.924 156C393.008 153.792 391.209 152 389 152H386.5C384.291 152 382.509 153.792 382.415 156C381.683 173.288 376.216 190.072 366.574 204.502C356.19 220.042 341.431 232.155 324.164 239.307C306.896 246.46 287.895 248.331 269.564 244.685C251.233 241.038 234.394 232.038 221.178 218.822C207.962 205.606 198.962 188.768 195.316 170.437C191.669 152.105 193.541 133.105 200.693 115.837C207.846 98.5693 219.958 83.8104 235.499 73.4266C249.929 63.7847 266.713 58.3172 284.001 57.5851C286.208 57.4917 288 55.7096 288 53.5005V51.0005Z" fill="#01A4AF"/>
<path d="M290 51.0005C290 48.7914 291.792 46.9921 293.999 47.0805C307.347 47.6146 320.466 50.8186 332.578 56.5178C344.689 62.217 355.521 70.2837 364.441 80.2278C365.916 81.8723 365.671 84.3996 363.969 85.8078L362.428 87.0826C360.726 88.4908 358.211 88.2458 356.729 86.6079C348.752 77.7946 339.1 70.6385 328.32 65.5661C317.541 60.4937 305.874 57.6175 293.999 57.0894C291.792 56.9912 290 55.2096 290 53.0005V51.0005Z" fill="#FFBA24"/>
<path d="M389 151C391.209 151 393.008 149.209 392.92 147.002C392.608 139.194 391.381 131.449 389.265 123.927C388.667 121.8 386.402 120.652 384.301 121.335L382.399 121.953C380.298 122.636 379.158 124.89 379.746 127.019C381.549 133.54 382.611 140.243 382.911 147.002C383.009 149.209 384.791 151 387 151H389Z" fill="#014DAF"/>
<path d="M383.504 119.907C385.61 119.242 386.787 116.992 386.039 114.914C384.459 110.524 382.573 106.25 380.396 102.123C379.365 100.17 376.91 99.5222 374.999 100.63L373.269 101.634C371.358 102.742 370.715 105.185 371.737 107.144C373.557 110.63 375.146 114.231 376.494 117.925C377.251 120 379.49 121.173 381.596 120.508L383.504 119.907Z" fill="#8020E7"/>
<path d="M373.621 99.151C375.524 98.0281 376.162 95.5707 374.964 93.7147C373.571 91.5558 372.094 89.4514 370.539 87.4062C369.201 85.6479 366.673 85.4122 364.97 86.8189L363.428 88.0925C361.724 89.4992 361.491 92.0151 362.821 93.7793C364.052 95.4132 365.228 97.0885 366.345 98.8025C367.551 100.653 369.996 101.291 371.899 100.168L373.621 99.151Z" fill="#FF4457"/>
<path d="M259.168 130.404V129.324H265.564V130.404H262.96V138H261.784V130.404H259.168ZM265.221 135.06C265.221 133.248 266.517 131.976 268.281 131.976C270.033 131.976 271.329 133.248 271.329 135.06C271.329 136.872 270.033 138.144 268.281 138.144C266.517 138.144 265.221 136.872 265.221 135.06ZM266.361 135.06C266.361 136.284 267.141 137.136 268.281 137.136C269.409 137.136 270.201 136.284 270.201 135.06C270.201 133.836 269.409 132.984 268.281 132.984C267.141 132.984 266.361 133.836 266.361 135.06ZM274.175 138H273.047V133.08H271.895V132.132H273.047V130.296H274.175V132.132H275.327V133.08H274.175V138ZM277.985 138.144C276.725 138.144 275.981 137.436 275.981 136.368C275.981 135.288 276.785 134.616 278.165 134.508L280.013 134.364V134.196C280.013 133.212 279.425 132.864 278.633 132.864C277.685 132.864 277.145 133.284 277.145 133.992H276.161C276.161 132.768 277.169 131.964 278.681 131.964C280.133 131.964 281.117 132.732 281.117 134.316V138H280.157L280.037 137.052C279.737 137.724 278.933 138.144 277.985 138.144ZM278.309 137.268C279.377 137.268 280.025 136.572 280.025 135.468V135.156L278.525 135.276C277.529 135.372 277.121 135.756 277.121 136.332C277.121 136.956 277.577 137.268 278.309 137.268ZM283.831 138H282.703V129.168H283.831V138ZM292.565 138.132C290.093 138.132 288.449 136.356 288.449 133.668C288.449 130.992 290.141 129.18 292.625 129.18C294.581 129.18 296.081 130.344 296.405 132.12H295.145C294.821 130.992 293.849 130.308 292.589 130.308C290.837 130.308 289.685 131.628 289.685 133.656C289.685 135.684 290.837 137.004 292.589 137.004C293.861 137.004 294.869 136.32 295.193 135.252H296.441C296.069 136.98 294.521 138.132 292.565 138.132ZM299.29 138.144C298.03 138.144 297.286 137.436 297.286 136.368C297.286 135.288 298.09 134.616 299.47 134.508L301.318 134.364V134.196C301.318 133.212 300.73 132.864 299.938 132.864C298.99 132.864 298.45 133.284 298.45 133.992H297.466C297.466 132.768 298.474 131.964 299.986 131.964C301.438 131.964 302.422 132.732 302.422 134.316V138H301.462L301.342 137.052C301.042 137.724 300.238 138.144 299.29 138.144ZM299.614 137.268C300.682 137.268 301.33 136.572 301.33 135.468V135.156L299.83 135.276C298.834 135.372 298.426 135.756 298.426 136.332C298.426 136.956 298.882 137.268 299.614 137.268ZM307.344 132.084V133.116H306.84C305.772 133.116 305.112 133.764 305.112 134.892V138H303.984V132.144H305.04L305.112 133.032C305.352 132.42 305.94 132.012 306.744 132.012C306.948 132.012 307.116 132.036 307.344 132.084ZM310.543 138.144C308.839 138.144 307.807 136.872 307.807 135.084C307.807 133.284 308.851 131.964 310.591 131.964C311.491 131.964 312.247 132.36 312.643 133.08V129.168H313.759V138H312.751L312.655 136.932C312.271 137.736 311.479 138.144 310.543 138.144ZM310.771 137.124C311.923 137.124 312.631 136.272 312.631 135.048C312.631 133.848 311.923 132.984 310.771 132.984C309.619 132.984 308.947 133.848 308.947 135.048C308.947 136.26 309.619 137.124 310.771 137.124ZM314.906 136.296H315.986C315.986 136.896 316.442 137.256 317.186 137.256C317.978 137.256 318.434 136.932 318.434 136.392C318.434 135.996 318.242 135.756 317.63 135.6L316.598 135.36C315.554 135.108 315.062 134.592 315.062 133.728C315.062 132.648 315.974 131.964 317.27 131.964C318.554 131.964 319.394 132.684 319.418 133.8H318.338C318.314 133.212 317.918 132.84 317.234 132.84C316.526 132.84 316.13 133.152 316.13 133.692C316.13 134.088 316.418 134.352 316.994 134.496L318.026 134.748C319.022 134.988 319.514 135.444 319.514 136.32C319.514 137.436 318.554 138.144 317.162 138.144C315.782 138.144 314.906 137.412 314.906 136.296Z" fill="#808080"/>
<path d="M271.816 172.976L260.104 173V171.2L265.696 166.376C268.504 163.952 269.296 162.776 269.296 160.928C269.296 158.744 268.048 157.448 265.96 157.448C263.824 157.448 262.432 159.008 262.384 161.48H260.032C260.104 157.76 262.456 155.336 265.984 155.336C269.464 155.336 271.696 157.448 271.696 160.784C271.696 163.256 270.472 165.008 267.4 167.672L263.8 170.792H271.816V172.976ZM278.032 172.064C278.032 173.792 276.736 175.232 275.032 175.448V174.44C276.016 174.272 276.712 173.624 276.712 172.88C276.544 172.976 276.352 173.024 276.064 173.024C275.272 173.024 274.6 172.448 274.6 171.56C274.6 170.6 275.248 169.904 276.208 169.904C277.216 169.904 278.032 170.744 278.032 172.064ZM293.362 169.496H291.298V173H289.042V169.496H280.066V167.408L288.25 155.648H291.298V167.408H293.362V169.496ZM282.61 167.408H289.042V158.144L282.61 167.408ZM301.258 173.288C297.706 173.288 295.402 171.032 295.402 167.576H297.73C297.73 169.808 299.098 171.176 301.306 171.176C303.658 171.176 305.17 169.616 305.17 167.264C305.17 165.032 303.754 163.376 301.33 163.376C299.866 163.376 298.522 164.072 297.73 165.056L295.738 164.552L297.85 155.648H306.538V157.808H299.554L298.402 162.416C299.314 161.72 300.466 161.36 301.762 161.36C305.29 161.36 307.57 163.832 307.57 167.168C307.57 170.768 305.002 173.288 301.258 173.288ZM309.606 164.336C309.606 158.96 312.39 155.312 316.758 155.312C321.102 155.312 323.886 158.96 323.886 164.336C323.886 169.736 321.222 173.312 316.758 173.312C312.27 173.312 309.606 169.736 309.606 164.336ZM311.934 164.336C311.934 168.608 313.71 171.2 316.758 171.2C319.806 171.2 321.558 168.608 321.558 164.336C321.558 160.016 319.806 157.424 316.758 157.424C313.71 157.424 311.934 160.016 311.934 164.336Z" fill="#121212"/>
<circle cx="128" cy="287" r="4" fill="#00984C"/>
<path d="M137.044 292H136.168L139.324 283.408H140.392L143.584 292H142.684L141.844 289.72H137.884L137.044 292ZM139.744 284.62L138.148 288.964H141.568L139.96 284.62C139.924 284.5 139.864 284.356 139.852 284.272C139.84 284.344 139.792 284.5 139.744 284.62ZM143.991 289.108C143.991 287.284 145.107 286.036 146.799 286.036C148.143 286.036 149.127 286.816 149.355 288.016H148.527C148.311 287.212 147.615 286.768 146.811 286.768C145.635 286.768 144.807 287.668 144.807 289.096C144.807 290.476 145.575 291.4 146.751 291.4C147.615 291.4 148.311 290.92 148.539 290.176H149.379C149.103 291.364 148.071 292.144 146.751 292.144C145.107 292.144 143.991 290.932 143.991 289.108ZM151.966 292H151.15V286.888H149.986V286.192H151.15V284.356H151.966V286.192H153.13V286.888H151.966V292ZM154.616 284.596C154.28 284.596 154.004 284.32 154.004 283.984C154.004 283.648 154.28 283.36 154.616 283.36C154.952 283.36 155.24 283.648 155.24 283.984C155.24 284.32 154.952 284.596 154.616 284.596ZM154.208 292V286.192H155.036V292H154.208ZM158.382 292L156.006 286.192H156.894L158.394 289.936C158.55 290.356 158.706 290.752 158.814 291.136C158.922 290.74 159.078 290.356 159.246 289.936L160.77 286.192H161.622L159.21 292H158.382ZM164.777 292.144C163.073 292.144 161.933 290.92 161.933 289.096C161.933 287.284 163.061 286.036 164.717 286.036C166.289 286.036 167.357 287.152 167.357 288.796V289.204H162.737C162.797 290.62 163.541 291.436 164.789 291.436C165.737 291.436 166.349 291.028 166.565 290.26H167.357C167.045 291.484 166.145 292.144 164.777 292.144ZM164.717 286.744C163.625 286.744 162.905 287.464 162.761 288.604H166.529C166.529 287.488 165.809 286.744 164.717 286.744Z" fill="#808080"/>
<circle cx="196" cy="287" r="4" fill="#FFBA24"/>
<path d="M210.192 292H205.044V283.408H210.18V284.2H205.908V287.296H209.784V288.076H205.908V291.208H210.192V292ZM211.994 292H211.022L213.098 289.096L211.034 286.192H212.006L213.65 288.52L215.282 286.192H216.242L214.178 289.108L216.23 292H215.246L213.614 289.672L211.994 292ZM217.227 294.532V286.192H217.947L218.031 287.368C218.439 286.468 219.255 286.036 220.227 286.036C221.907 286.036 222.915 287.32 222.915 289.072C222.915 290.824 221.943 292.144 220.227 292.144C219.243 292.144 218.463 291.724 218.055 290.884V294.532H217.227ZM218.067 289.096C218.067 290.428 218.811 291.4 220.083 291.4C221.343 291.4 222.075 290.428 222.075 289.096C222.075 287.752 221.343 286.792 220.083 286.792C218.811 286.792 218.067 287.752 218.067 289.096ZM224.643 284.596C224.307 284.596 224.031 284.32 224.031 283.984C224.031 283.648 224.307 283.36 224.643 283.36C224.979 283.36 225.267 283.648 225.267 283.984C225.267 284.32 224.979 284.596 224.643 284.596ZM224.235 292V286.192H225.063V292H224.235ZM229.826 286.12V286.864H229.37C228.302 286.864 227.618 287.584 227.618 288.688V292H226.79V286.192H227.57L227.63 287.092C227.858 286.468 228.47 286.06 229.286 286.06C229.466 286.06 229.622 286.072 229.826 286.12ZM233.14 292.144C231.436 292.144 230.296 290.92 230.296 289.096C230.296 287.284 231.424 286.036 233.08 286.036C234.652 286.036 235.72 287.152 235.72 288.796V289.204H231.1C231.16 290.62 231.904 291.436 233.152 291.436C234.1 291.436 234.712 291.028 234.928 290.26H235.72C235.408 291.484 234.508 292.144 233.14 292.144ZM233.08 286.744C231.988 286.744 231.268 287.464 231.124 288.604H234.892C234.892 287.488 234.172 286.744 233.08 286.744ZM239.324 292.144C237.632 292.144 236.636 290.848 236.636 289.108C236.636 287.356 237.632 286.036 239.36 286.036C240.32 286.036 241.088 286.456 241.496 287.296V283.252H242.324V292H241.604L241.52 290.812C241.112 291.712 240.296 292.144 239.324 292.144ZM239.468 291.388C240.74 291.388 241.484 290.428 241.484 289.084C241.484 287.752 240.74 286.78 239.468 286.78C238.208 286.78 237.476 287.752 237.476 289.084C237.476 290.428 238.208 291.388 239.468 291.388Z" fill="#808080"/>
<circle cx="272" cy="287" r="4" fill="#014DAF"/>
<path d="M281.908 283.408V292H281.044V283.408H281.908ZM284.645 292H283.817V286.192H284.537L284.657 287.2C285.041 286.456 285.809 286.036 286.649 286.036C288.245 286.036 288.905 286.984 288.905 288.448V292H288.077V288.628C288.077 287.272 287.465 286.792 286.505 286.792C285.317 286.792 284.645 287.656 284.645 288.964V292ZM292.223 292.144C290.987 292.144 290.255 291.448 290.255 290.428C290.255 289.36 291.071 288.688 292.427 288.58L294.347 288.424V288.232C294.347 287.092 293.663 286.732 292.811 286.732C291.803 286.732 291.203 287.188 291.203 287.968H290.447C290.447 286.792 291.407 286.036 292.835 286.036C294.179 286.036 295.163 286.708 295.163 288.244V292H294.467L294.359 290.98C293.999 291.712 293.207 292.144 292.223 292.144ZM292.415 291.472C293.639 291.472 294.347 290.62 294.347 289.36V289.048L292.631 289.18C291.539 289.276 291.095 289.756 291.095 290.404C291.095 291.112 291.623 291.472 292.415 291.472ZM296.417 289.108C296.417 287.284 297.533 286.036 299.225 286.036C300.569 286.036 301.553 286.816 301.781 288.016H300.953C300.737 287.212 300.041 286.768 299.237 286.768C298.061 286.768 297.233 287.668 297.233 289.096C297.233 290.476 298.001 291.4 299.177 291.4C300.041 291.4 300.737 290.92 300.965 290.176H301.805C301.529 291.364 300.497 292.144 299.177 292.144C297.533 292.144 296.417 290.932 296.417 289.108ZM304.391 292H303.575V286.888H302.411V286.192H303.575V284.356H304.391V286.192H305.555V286.888H304.391V292ZM307.042 284.596C306.706 284.596 306.43 284.32 306.43 283.984C306.43 283.648 306.706 283.36 307.042 283.36C307.378 283.36 307.666 283.648 307.666 283.984C307.666 284.32 307.378 284.596 307.042 284.596ZM306.634 292V286.192H307.462V292H306.634ZM310.808 292L308.432 286.192H309.32L310.82 289.936C310.976 290.356 311.132 290.752 311.24 291.136C311.348 290.74 311.504 290.356 311.672 289.936L313.196 286.192H314.048L311.636 292H310.808ZM317.202 292.144C315.498 292.144 314.358 290.92 314.358 289.096C314.358 287.284 315.486 286.036 317.142 286.036C318.714 286.036 319.782 287.152 319.782 288.796V289.204H315.162C315.222 290.62 315.966 291.436 317.214 291.436C318.162 291.436 318.774 291.028 318.99 290.26H319.782C319.47 291.484 318.57 292.144 317.202 292.144ZM317.142 286.744C316.05 286.744 315.33 287.464 315.186 288.604H318.954C318.954 287.488 318.234 286.744 317.142 286.744Z" fill="#808080"/>
<circle cx="349" cy="287" r="4" fill="#8020E7"/>
<path d="M358.044 292V283.408H361.188C362.844 283.408 363.864 284.248 363.864 285.628C363.864 286.636 363.42 287.32 362.532 287.668C363.528 287.992 364.032 288.688 364.032 289.744C364.032 291.124 363 292 361.368 292H358.044ZM361.176 284.176H358.908V287.32H361.284C362.364 287.32 362.976 286.72 362.976 285.7C362.976 284.74 362.328 284.176 361.176 284.176ZM361.368 288.076H358.908V291.22H361.368C362.496 291.22 363.156 290.632 363.156 289.636C363.156 288.664 362.484 288.076 361.368 288.076ZM366.275 292H365.447V283.252H366.275V292ZM367.628 289.096C367.628 287.32 368.876 286.036 370.58 286.036C372.284 286.036 373.532 287.32 373.532 289.096C373.532 290.86 372.284 292.144 370.58 292.144C368.876 292.144 367.628 290.86 367.628 289.096ZM368.468 289.084C368.468 290.452 369.332 291.4 370.58 291.4C371.816 291.4 372.692 290.452 372.692 289.084C372.692 287.74 371.816 286.78 370.58 286.78C369.332 286.78 368.468 287.74 368.468 289.084ZM374.448 289.108C374.448 287.284 375.564 286.036 377.256 286.036C378.6 286.036 379.584 286.816 379.812 288.016H378.984C378.768 287.212 378.072 286.768 377.268 286.768C376.092 286.768 375.264 287.668 375.264 289.096C375.264 290.476 376.032 291.4 377.208 291.4C378.072 291.4 378.768 290.92 378.996 290.176H379.836C379.56 291.364 378.528 292.144 377.208 292.144C375.564 292.144 374.448 290.932 374.448 289.108ZM381.955 292H381.127V283.252H381.955V289.192L384.835 286.192H385.879L383.647 288.508L385.891 292H384.931L383.083 289.096L381.955 290.26V292ZM389.116 292.144C387.412 292.144 386.272 290.92 386.272 289.096C386.272 287.284 387.4 286.036 389.056 286.036C390.628 286.036 391.696 287.152 391.696 288.796V289.204H387.076C387.136 290.62 387.88 291.436 389.128 291.436C390.076 291.436 390.688 291.028 390.904 290.26H391.696C391.384 291.484 390.484 292.144 389.116 292.144ZM389.056 286.744C387.964 286.744 387.244 287.464 387.1 288.604H390.868C390.868 287.488 390.148 286.744 389.056 286.744ZM395.3 292.144C393.608 292.144 392.612 290.848 392.612 289.108C392.612 287.356 393.608 286.036 395.336 286.036C396.296 286.036 397.064 286.456 397.472 287.296V283.252H398.3V292H397.58L397.496 290.812C397.088 291.712 396.272 292.144 395.3 292.144ZM395.444 291.388C396.716 291.388 397.46 290.428 397.46 289.084C397.46 287.752 396.716 286.78 395.444 286.78C394.184 286.78 393.452 287.752 393.452 289.084C393.452 290.428 394.184 291.388 395.444 291.388Z" fill="#808080"/>
<circle cx="428" cy="287" r="4" fill="#FF4457"/>
<path d="M437.908 283.408V291.208H441.856V292H437.044V283.408H437.908ZM442.444 289.096C442.444 287.32 443.692 286.036 445.396 286.036C447.1 286.036 448.348 287.32 448.348 289.096C448.348 290.86 447.1 292.144 445.396 292.144C443.692 292.144 442.444 290.86 442.444 289.096ZM443.284 289.084C443.284 290.452 444.148 291.4 445.396 291.4C446.632 291.4 447.508 290.452 447.508 289.084C447.508 287.74 446.632 286.78 445.396 286.78C444.148 286.78 443.284 287.74 443.284 289.084ZM449.181 290.368H449.973C449.973 291.04 450.477 291.46 451.293 291.46C452.193 291.46 452.721 291.076 452.721 290.452C452.721 289.972 452.481 289.696 451.797 289.528L450.801 289.276C449.793 289.024 449.301 288.496 449.301 287.704C449.301 286.684 450.153 286.036 451.401 286.036C452.625 286.036 453.417 286.708 453.453 287.788H452.649C452.625 287.116 452.157 286.72 451.377 286.72C450.561 286.72 450.105 287.068 450.105 287.692C450.105 288.136 450.417 288.448 451.053 288.604L452.049 288.856C453.057 289.108 453.513 289.576 453.513 290.416C453.513 291.46 452.625 292.144 451.305 292.144C449.997 292.144 449.181 291.448 449.181 290.368ZM456.208 292H455.392V286.888H454.228V286.192H455.392V284.356H456.208V286.192H457.372V286.888H456.208V292Z" fill="#808080"/>
</svg>
