<svg width="581" height="290" viewBox="0 0 581 290" fill="none" xmlns="http://www.w3.org/2000/svg">
<rect x="0.5" y="0.5" width="580" height="289" rx="11.5" fill="white"/>
<rect x="0.5" y="0.5" width="580" height="289" rx="11.5" stroke="#E2E2E2"/>
<path d="M19.276 32H17.512V18.986H22.426C25.216 18.986 26.872 20.462 26.872 22.892C26.872 24.692 25.972 25.988 24.352 26.51L26.998 32H25.036L22.606 26.852H19.276V32ZM19.276 20.57V25.286H22.444C24.082 25.286 25.018 24.404 25.018 22.91C25.018 21.398 24.046 20.57 22.426 20.57H19.276ZM32.1665 32.216C29.5745 32.216 27.7925 30.344 27.7925 27.608C27.7925 24.854 29.5385 22.946 32.0945 22.946C34.5965 22.946 36.2345 24.674 36.2345 27.284V27.914L29.4305 27.932C29.5565 29.786 30.5285 30.812 32.2025 30.812C33.5165 30.812 34.3805 30.272 34.6685 29.264H36.2525C35.8205 31.154 34.3445 32.216 32.1665 32.216ZM32.0945 24.368C30.6185 24.368 29.6825 25.25 29.4665 26.798H34.5425C34.5425 25.34 33.5885 24.368 32.0945 24.368ZM37.5484 27.608C37.5484 24.854 39.2944 22.946 41.8684 22.946C44.0824 22.946 45.6304 24.206 45.9364 26.168H44.2444C43.9564 25.052 43.0564 24.458 41.9224 24.458C40.3204 24.458 39.2224 25.682 39.2224 27.59C39.2224 29.48 40.2484 30.704 41.8504 30.704C43.0564 30.704 43.9564 30.074 44.2624 29.03H45.9544C45.6124 30.938 43.9744 32.216 41.8504 32.216C39.2584 32.216 37.5484 30.38 37.5484 27.608ZM51.5376 32.216C48.9456 32.216 47.1636 30.344 47.1636 27.608C47.1636 24.854 48.9096 22.946 51.4656 22.946C53.9676 22.946 55.6056 24.674 55.6056 27.284V27.914L48.8016 27.932C48.9276 29.786 49.8996 30.812 51.5736 30.812C52.8876 30.812 53.7516 30.272 54.0396 29.264H55.6236C55.1916 31.154 53.7156 32.216 51.5376 32.216ZM51.4656 24.368C49.9896 24.368 49.0536 25.25 48.8376 26.798H53.9136C53.9136 25.34 52.9596 24.368 51.4656 24.368ZM59.1875 32H57.4955V23.198H59.0255L59.2055 24.548C59.7635 23.54 60.8795 22.946 62.1215 22.946C64.4435 22.946 65.5055 24.368 65.5055 26.618V32H63.8135V26.996C63.8135 25.214 62.9855 24.494 61.6895 24.494C60.1055 24.494 59.1875 25.628 59.1875 27.338V32ZM70.333 32H68.641V24.62H66.913V23.198H68.641V20.444H70.333V23.198H72.061V24.62H70.333V32ZM84.1893 32.198C80.4813 32.198 78.0153 29.534 78.0153 25.502C78.0153 21.488 80.5533 18.77 84.2793 18.77C87.2133 18.77 89.4633 20.516 89.9493 23.18H88.0593C87.5733 21.488 86.1153 20.462 84.2253 20.462C81.5973 20.462 79.8693 22.442 79.8693 25.484C79.8693 28.526 81.5973 30.506 84.2253 30.506C86.1333 30.506 87.6453 29.48 88.1313 27.878H90.0033C89.4453 30.47 87.1233 32.198 84.1893 32.198ZM94.2765 32.216C92.3865 32.216 91.2705 31.154 91.2705 29.552C91.2705 27.932 92.4765 26.924 94.5465 26.762L97.3185 26.546V26.294C97.3185 24.818 96.4365 24.296 95.2485 24.296C93.8265 24.296 93.0165 24.926 93.0165 25.988H91.5405C91.5405 24.152 93.0525 22.946 95.3205 22.946C97.4985 22.946 98.9745 24.098 98.9745 26.474V32H97.5345L97.3545 30.578C96.9045 31.586 95.6985 32.216 94.2765 32.216ZM94.7625 30.902C96.3645 30.902 97.3365 29.858 97.3365 28.202V27.734L95.0865 27.914C93.5925 28.058 92.9805 28.634 92.9805 29.498C92.9805 30.434 93.6645 30.902 94.7625 30.902ZM106.358 23.126V24.674H105.602C104 24.674 103.01 25.646 103.01 27.338V32H101.318V23.216H102.902L103.01 24.548C103.37 23.63 104.252 23.018 105.458 23.018C105.764 23.018 106.016 23.054 106.358 23.126ZM111.156 32.216C108.6 32.216 107.052 30.308 107.052 27.626C107.052 24.926 108.618 22.946 111.228 22.946C112.578 22.946 113.712 23.54 114.306 24.62V18.752H115.98V32H114.468L114.324 30.398C113.748 31.604 112.56 32.216 111.156 32.216ZM111.498 30.686C113.226 30.686 114.288 29.408 114.288 27.572C114.288 25.772 113.226 24.476 111.498 24.476C109.77 24.476 108.762 25.772 108.762 27.572C108.762 29.39 109.77 30.686 111.498 30.686ZM125.395 32H123.631V18.986H128.545C131.335 18.986 132.991 20.462 132.991 22.892C132.991 24.692 132.091 25.988 130.471 26.51L133.117 32H131.155L128.725 26.852H125.395V32ZM125.395 20.57V25.286H128.563C130.201 25.286 131.137 24.404 131.137 22.91C131.137 21.398 130.165 20.57 128.545 20.57H125.395ZM138.286 32.216C135.694 32.216 133.912 30.344 133.912 27.608C133.912 24.854 135.658 22.946 138.214 22.946C140.716 22.946 142.354 24.674 142.354 27.284V27.914L135.55 27.932C135.676 29.786 136.648 30.812 138.322 30.812C139.636 30.812 140.5 30.272 140.788 29.264H142.372C141.94 31.154 140.464 32.216 138.286 32.216ZM138.214 24.368C136.738 24.368 135.802 25.25 135.586 26.798H140.662C140.662 25.34 139.708 24.368 138.214 24.368ZM143.668 27.536C143.668 24.836 145.252 22.946 147.772 22.946C149.158 22.946 150.364 23.576 150.94 24.782L151.084 23.198H152.596V35.942H150.922V30.56C150.328 31.64 149.158 32.234 147.754 32.234C145.162 32.234 143.668 30.218 143.668 27.536ZM145.378 27.608C145.378 29.408 146.386 30.704 148.114 30.704C149.842 30.704 150.904 29.408 150.904 27.608C150.904 25.772 149.842 24.494 148.114 24.494C146.386 24.494 145.378 25.79 145.378 27.608ZM161.121 23.198H162.795V32H161.283L161.103 30.668C160.599 31.586 159.429 32.216 158.133 32.216C156.081 32.216 154.929 30.83 154.929 28.67V23.198H156.621V28.112C156.621 30.002 157.431 30.722 158.727 30.722C160.275 30.722 161.121 29.732 161.121 27.842V23.198ZM168.872 32.216C166.28 32.216 164.498 30.344 164.498 27.608C164.498 24.854 166.244 22.946 168.8 22.946C171.302 22.946 172.94 24.674 172.94 27.284V27.914L166.136 27.932C166.262 29.786 167.234 30.812 168.908 30.812C170.222 30.812 171.086 30.272 171.374 29.264H172.958C172.526 31.154 171.05 32.216 168.872 32.216ZM168.8 24.368C167.324 24.368 166.388 25.25 166.172 26.798H171.248C171.248 25.34 170.294 24.368 168.8 24.368ZM174.109 29.444H175.729C175.729 30.344 176.413 30.884 177.529 30.884C178.717 30.884 179.401 30.398 179.401 29.588C179.401 28.994 179.113 28.634 178.195 28.4L176.647 28.04C175.081 27.662 174.343 26.888 174.343 25.592C174.343 23.972 175.711 22.946 177.655 22.946C179.581 22.946 180.841 24.026 180.877 25.7H179.257C179.221 24.818 178.627 24.26 177.601 24.26C176.539 24.26 175.945 24.728 175.945 25.538C175.945 26.132 176.377 26.528 177.241 26.744L178.789 27.122C180.283 27.482 181.021 28.166 181.021 29.48C181.021 31.154 179.581 32.216 177.493 32.216C175.423 32.216 174.109 31.118 174.109 29.444ZM185.382 32H183.69V24.62H181.962V23.198H183.69V20.444H185.382V23.198H187.11V24.62H185.382V32ZM187.908 29.444H189.528C189.528 30.344 190.212 30.884 191.328 30.884C192.516 30.884 193.2 30.398 193.2 29.588C193.2 28.994 192.912 28.634 191.994 28.4L190.446 28.04C188.88 27.662 188.142 26.888 188.142 25.592C188.142 23.972 189.51 22.946 191.454 22.946C193.38 22.946 194.64 24.026 194.676 25.7H193.056C193.02 24.818 192.426 24.26 191.4 24.26C190.338 24.26 189.744 24.728 189.744 25.538C189.744 26.132 190.176 26.528 191.04 26.744L192.588 27.122C194.082 27.482 194.82 28.166 194.82 29.48C194.82 31.154 193.38 32.216 191.292 32.216C189.222 32.216 187.908 31.118 187.908 29.444Z" fill="#121212"/>
<path d="M557.972 18.1304H562.871M562.871 18.1304V23.03M562.871 18.1304L557.155 23.8465M553.072 32.8291H548.172M548.172 32.8291V27.9295M548.172 32.8291L553.889 27.1129" stroke="#D0D5DD" stroke-width="1.95983" stroke-linecap="round" stroke-linejoin="round"/>
<g clip-path="url(#clip0_112_6638)">
<path d="M16 55H125.8V89H16V55Z" fill="#F1F7FF"/>
<path d="M16 55V54.5H15.5V55H16ZM16 89H15.5V89.5H16V89ZM16 55.5H125.8V54.5H16V55.5ZM125.8 88.5H16V89.5H125.8V88.5ZM16.5 89V55H15.5V89H16.5Z" fill="#E2E2E2"/>
<path d="M52.4079 77V68.324H55.7199C57.4119 68.324 58.4439 69.188 58.4439 70.616C58.4439 71.612 58.0119 72.284 57.1479 72.644C58.1079 72.956 58.5999 73.652 58.5999 74.684C58.5999 76.124 57.5559 77 55.8399 77H52.4079ZM55.6479 69.368H53.5839V72.152H55.7199C56.6919 72.152 57.2439 71.624 57.2439 70.724C57.2439 69.86 56.6679 69.368 55.6479 69.368ZM55.8159 73.172H53.5839V75.956H55.8159C56.8239 75.956 57.3879 75.44 57.3879 74.54C57.3879 73.676 56.8119 73.172 55.8159 73.172ZM63.24 71.084V72.116H62.736C61.668 72.116 61.008 72.764 61.008 73.892V77H59.88V71.144H60.936L61.008 72.032C61.248 71.42 61.836 71.012 62.64 71.012C62.844 71.012 63.012 71.036 63.24 71.084ZM65.7796 77.144C64.5196 77.144 63.7756 76.436 63.7756 75.368C63.7756 74.288 64.5796 73.616 65.9596 73.508L67.8076 73.364V73.196C67.8076 72.212 67.2196 71.864 66.4276 71.864C65.4796 71.864 64.9396 72.284 64.9396 72.992H63.9556C63.9556 71.768 64.9636 70.964 66.4756 70.964C67.9276 70.964 68.9116 71.732 68.9116 73.316V77H67.9516L67.8316 76.052C67.5316 76.724 66.7276 77.144 65.7796 77.144ZM66.1036 76.268C67.1716 76.268 67.8196 75.572 67.8196 74.468V74.156L66.3196 74.276C65.3236 74.372 64.9156 74.756 64.9156 75.332C64.9156 75.956 65.3716 76.268 66.1036 76.268ZM71.6017 77H70.4737V71.132H71.4937L71.6137 72.032C71.9857 71.36 72.7297 70.964 73.5577 70.964C75.1057 70.964 75.8137 71.912 75.8137 73.412V77H74.6857V73.664C74.6857 72.476 74.1337 71.996 73.2697 71.996C72.2137 71.996 71.6017 72.752 71.6017 73.892V77ZM76.9921 74.072C76.9921 72.236 78.1561 70.964 79.8721 70.964C81.3481 70.964 82.3801 71.804 82.5841 73.112H81.4561C81.2641 72.368 80.6641 71.972 79.9081 71.972C78.8401 71.972 78.1081 72.788 78.1081 74.06C78.1081 75.32 78.7921 76.136 79.8601 76.136C80.6641 76.136 81.2641 75.716 81.4681 75.02H82.5961C82.3681 76.292 81.2761 77.144 79.8601 77.144C78.1321 77.144 76.9921 75.92 76.9921 74.072ZM84.9142 76.988H83.7862V68.168H84.9142V72.032C85.2862 71.396 85.9942 70.964 86.9062 70.964C88.4062 70.964 89.1262 71.912 89.1262 73.412V77H87.9982V73.664C87.9982 72.476 87.4342 71.996 86.5942 71.996C85.5022 71.996 84.9142 72.788 84.9142 73.796V76.988Z" fill="black" fill-opacity="0.560784"/>
<path d="M125.8 55H235.6V89H125.8V55Z" fill="#F1F7FF"/>
<path d="M125.8 55.5H235.6V54.5H125.8V55.5ZM235.6 88.5H125.8V89.5H235.6V88.5Z" fill="#E2E2E2"/>
<path d="M157.308 77.132C154.836 77.132 153.192 75.356 153.192 72.668C153.192 69.992 154.884 68.18 157.368 68.18C159.324 68.18 160.824 69.344 161.148 71.12H159.888C159.564 69.992 158.592 69.308 157.332 69.308C155.58 69.308 154.428 70.628 154.428 72.656C154.428 74.684 155.58 76.004 157.332 76.004C158.604 76.004 159.612 75.32 159.936 74.252H161.184C160.812 75.98 159.264 77.132 157.308 77.132ZM164.033 77.144C162.773 77.144 162.029 76.436 162.029 75.368C162.029 74.288 162.833 73.616 164.213 73.508L166.061 73.364V73.196C166.061 72.212 165.473 71.864 164.681 71.864C163.733 71.864 163.193 72.284 163.193 72.992H162.209C162.209 71.768 163.217 70.964 164.729 70.964C166.181 70.964 167.165 71.732 167.165 73.316V77H166.205L166.085 76.052C165.785 76.724 164.981 77.144 164.033 77.144ZM164.357 76.268C165.425 76.268 166.073 75.572 166.073 74.468V74.156L164.573 74.276C163.577 74.372 163.169 74.756 163.169 75.332C163.169 75.956 163.625 76.268 164.357 76.268ZM172.087 71.084V72.116H171.583C170.515 72.116 169.855 72.764 169.855 73.892V77H168.727V71.144H169.783L169.855 72.032C170.095 71.42 170.683 71.012 171.487 71.012C171.691 71.012 171.859 71.036 172.087 71.084ZM175.286 77.144C173.582 77.144 172.55 75.872 172.55 74.084C172.55 72.284 173.594 70.964 175.334 70.964C176.234 70.964 176.99 71.36 177.386 72.08V68.168H178.502V77H177.494L177.398 75.932C177.014 76.736 176.222 77.144 175.286 77.144ZM175.514 76.124C176.666 76.124 177.374 75.272 177.374 74.048C177.374 72.848 176.666 71.984 175.514 71.984C174.362 71.984 173.69 72.848 173.69 74.048C173.69 75.26 174.362 76.124 175.514 76.124ZM182.762 69.404V68.324H189.158V69.404H186.554V77H185.378V69.404H182.762ZM189.116 79.628V78.704H189.872C190.412 78.704 190.844 78.62 191.12 77.876L191.324 77.312L188.96 71.132H190.148L191.852 75.86L193.592 71.132H194.756L191.984 78.32C191.588 79.328 191 79.748 190.1 79.748C189.728 79.748 189.416 79.7 189.116 79.628ZM195.657 79.628V71.132H196.677L196.761 72.188C197.157 71.384 197.949 70.964 198.885 70.964C200.565 70.964 201.609 72.224 201.609 74.024C201.609 75.812 200.625 77.156 198.885 77.156C197.949 77.156 197.169 76.76 196.785 76.04V79.628H195.657ZM196.797 74.072C196.797 75.272 197.493 76.136 198.645 76.136C199.797 76.136 200.481 75.272 200.481 74.072C200.481 72.86 199.797 71.996 198.645 71.996C197.493 71.996 196.797 72.848 196.797 74.072ZM205.384 77.144C203.656 77.144 202.468 75.896 202.468 74.072C202.468 72.236 203.632 70.964 205.336 70.964C207.004 70.964 208.096 72.116 208.096 73.856V74.276L203.56 74.288C203.644 75.524 204.292 76.208 205.408 76.208C206.284 76.208 206.86 75.848 207.052 75.176H208.108C207.82 76.436 206.836 77.144 205.384 77.144ZM205.336 71.912C204.352 71.912 203.728 72.5 203.584 73.532H206.968C206.968 72.56 206.332 71.912 205.336 71.912Z" fill="black" fill-opacity="0.560784"/>
<path d="M235.6 55H345.4V89H235.6V55Z" fill="#F1F7FF"/>
<path d="M235.6 55.5H345.4V54.5H235.6V55.5ZM345.4 88.5H235.6V89.5H345.4V88.5Z" fill="#E2E2E2"/>
<path d="M275.348 77.576L274.412 76.52C273.764 76.916 272.996 77.144 272.144 77.144C269.696 77.144 267.992 75.296 267.992 72.656C267.992 70.028 269.708 68.168 272.156 68.168C274.616 68.168 276.332 70.016 276.332 72.656C276.332 73.952 275.912 75.056 275.204 75.848L276.116 76.88L275.348 77.576ZM275.096 72.656C275.096 70.64 273.92 69.308 272.156 69.308C270.392 69.308 269.228 70.64 269.228 72.656C269.228 74.672 270.392 76.016 272.156 76.016C272.708 76.016 273.2 75.884 273.62 75.632L272.48 74.348L273.248 73.652L274.4 74.948C274.844 74.372 275.096 73.58 275.096 72.656ZM281.7 71.132H282.816V77H281.808L281.688 76.112C281.352 76.724 280.572 77.144 279.708 77.144C278.34 77.144 277.572 76.22 277.572 74.78V71.132H278.7V74.408C278.7 75.668 279.24 76.148 280.104 76.148C281.136 76.148 281.7 75.488 281.7 74.228V71.132ZM286.169 77.144C284.909 77.144 284.165 76.436 284.165 75.368C284.165 74.288 284.969 73.616 286.349 73.508L288.197 73.364V73.196C288.197 72.212 287.609 71.864 286.817 71.864C285.869 71.864 285.329 72.284 285.329 72.992H284.345C284.345 71.768 285.353 70.964 286.865 70.964C288.317 70.964 289.301 71.732 289.301 73.316V77H288.341L288.221 76.052C287.921 76.724 287.117 77.144 286.169 77.144ZM286.493 76.268C287.561 76.268 288.209 75.572 288.209 74.468V74.156L286.709 74.276C285.713 74.372 285.305 74.756 285.305 75.332C285.305 75.956 285.761 76.268 286.493 76.268ZM291.991 77H290.863V71.132H291.883L292.003 72.032C292.375 71.36 293.119 70.964 293.947 70.964C295.495 70.964 296.203 71.912 296.203 73.412V77H295.075V73.664C295.075 72.476 294.523 71.996 293.659 71.996C292.603 71.996 291.991 72.752 291.991 73.892V77ZM299.421 77H298.293V72.08H297.141V71.132H298.293V69.296H299.421V71.132H300.573V72.08H299.421V77ZM302.138 69.74C301.73 69.74 301.394 69.404 301.394 68.996C301.394 68.576 301.73 68.252 302.138 68.252C302.546 68.252 302.882 68.576 302.882 68.996C302.882 69.404 302.546 69.74 302.138 69.74ZM301.586 77V71.132H302.714V77H301.586ZM306.007 77H304.879V72.08H303.727V71.132H304.879V69.296H306.007V71.132H307.159V72.08H306.007V77ZM307.607 79.628V78.704H308.363C308.903 78.704 309.335 78.62 309.611 77.876L309.815 77.312L307.451 71.132H308.639L310.343 75.86L312.083 71.132H313.247L310.475 78.32C310.079 79.328 309.491 79.748 308.591 79.748C308.219 79.748 307.907 79.7 307.607 79.628Z" fill="black" fill-opacity="0.560784"/>
<path d="M345.4 55H455.2V89H345.4V55Z" fill="#F1F7FF"/>
<path d="M345.4 55.5H455.2V54.5H345.4V55.5ZM455.2 88.5H345.4V89.5H455.2V88.5Z" fill="#E2E2E2"/>
<path d="M384.304 70.664C384.304 69.176 385.504 68.168 387.292 68.168C388.948 68.168 390.016 69.092 390.112 70.592H388.924C388.864 69.728 388.252 69.224 387.28 69.224C386.188 69.224 385.48 69.776 385.48 70.628C385.48 71.324 385.876 71.744 386.692 71.936L388.12 72.272C389.536 72.596 390.256 73.364 390.256 74.588C390.256 76.148 389.044 77.144 387.196 77.144C385.432 77.144 384.256 76.22 384.184 74.732H385.384C385.408 75.56 386.104 76.088 387.196 76.088C388.348 76.088 389.08 75.548 389.08 74.684C389.08 74 388.708 73.568 387.88 73.376L386.452 73.052C385.036 72.728 384.304 71.912 384.304 70.664ZM393.198 77H392.07V72.08H390.918V71.132H392.07V69.296H393.198V71.132H394.35V72.08H393.198V77ZM397.008 77.144C395.748 77.144 395.004 76.436 395.004 75.368C395.004 74.288 395.808 73.616 397.188 73.508L399.036 73.364V73.196C399.036 72.212 398.448 71.864 397.656 71.864C396.708 71.864 396.168 72.284 396.168 72.992H395.184C395.184 71.768 396.192 70.964 397.704 70.964C399.156 70.964 400.14 71.732 400.14 73.316V77H399.18L399.06 76.052C398.76 76.724 397.956 77.144 397.008 77.144ZM397.332 76.268C398.4 76.268 399.048 75.572 399.048 74.468V74.156L397.548 74.276C396.552 74.372 396.144 74.756 396.144 75.332C396.144 75.956 396.6 76.268 397.332 76.268ZM403.264 77H402.136V72.08H400.984V71.132H402.136V69.296H403.264V71.132H404.416V72.08H403.264V77ZM409.484 71.132H410.6V77H409.592L409.472 76.112C409.136 76.724 408.356 77.144 407.492 77.144C406.124 77.144 405.356 76.22 405.356 74.78V71.132H406.484V74.408C406.484 75.668 407.024 76.148 407.888 76.148C408.92 76.148 409.484 75.488 409.484 74.228V71.132ZM411.64 75.296H412.72C412.72 75.896 413.176 76.256 413.92 76.256C414.712 76.256 415.168 75.932 415.168 75.392C415.168 74.996 414.976 74.756 414.364 74.6L413.332 74.36C412.288 74.108 411.796 73.592 411.796 72.728C411.796 71.648 412.708 70.964 414.004 70.964C415.288 70.964 416.128 71.684 416.152 72.8H415.072C415.048 72.212 414.652 71.84 413.968 71.84C413.26 71.84 412.864 72.152 412.864 72.692C412.864 73.088 413.152 73.352 413.728 73.496L414.76 73.748C415.756 73.988 416.248 74.444 416.248 75.32C416.248 76.436 415.288 77.144 413.896 77.144C412.516 77.144 411.64 76.412 411.64 75.296Z" fill="black" fill-opacity="0.560784"/>
<path d="M455.2 55H565V89H455.2V55Z" fill="#F1F7FF"/>
<path d="M565 55H565.5V54.5H565V55ZM565 89V89.5H565.5V89H565ZM455.2 55.5H565V54.5H455.2V55.5ZM564.5 55V89H565.5V55H564.5ZM565 88.5H455.2V89.5H565V88.5Z" fill="#E2E2E2"/>
<path d="M493.968 77H492.744L495.912 68.324H497.22L500.4 77H499.164L498.384 74.84H494.736L493.968 77ZM496.416 70.196L495.096 73.82H498.036L496.704 70.196C496.644 70.028 496.584 69.824 496.56 69.692C496.536 69.812 496.476 70.016 496.416 70.196ZM500.755 74.072C500.755 72.236 501.919 70.964 503.635 70.964C505.111 70.964 506.143 71.804 506.347 73.112H505.219C505.027 72.368 504.427 71.972 503.671 71.972C502.603 71.972 501.871 72.788 501.871 74.06C501.871 75.32 502.555 76.136 503.623 76.136C504.427 76.136 505.027 75.716 505.231 75.02H506.359C506.131 76.292 505.039 77.144 503.623 77.144C501.895 77.144 500.755 75.92 500.755 74.072ZM509.205 77H508.077V72.08H506.925V71.132H508.077V69.296H509.205V71.132H510.357V72.08H509.205V77ZM511.921 69.74C511.513 69.74 511.177 69.404 511.177 68.996C511.177 68.576 511.513 68.252 511.921 68.252C512.329 68.252 512.665 68.576 512.665 68.996C512.665 69.404 512.329 69.74 511.921 69.74ZM511.369 77V71.132H512.497V77H511.369ZM513.751 74.06C513.751 72.248 515.047 70.976 516.811 70.976C518.563 70.976 519.859 72.248 519.859 74.06C519.859 75.872 518.563 77.144 516.811 77.144C515.047 77.144 513.751 75.872 513.751 74.06ZM514.891 74.06C514.891 75.284 515.671 76.136 516.811 76.136C517.939 76.136 518.731 75.284 518.731 74.06C518.731 72.836 517.939 71.984 516.811 71.984C515.671 71.984 514.891 72.836 514.891 74.06ZM522.235 77H521.107V71.132H522.127L522.247 72.032C522.619 71.36 523.363 70.964 524.191 70.964C525.739 70.964 526.447 71.912 526.447 73.412V77H525.319V73.664C525.319 72.476 524.767 71.996 523.903 71.996C522.847 71.996 522.235 72.752 522.235 73.892V77Z" fill="black" fill-opacity="0.560784"/>
</g>
<path d="M16 89H125.8V131H16V89Z" fill="white"/>
<path d="M16 89.5H125.8V88.5H16V89.5ZM125.8 130.5H16V131.5H125.8V130.5Z" fill="#EAECF0"/>
<path d="M52.1899 114.11C50.1899 114.11 48.8299 112.62 48.8299 110.42C48.8299 108.22 50.2099 106.72 52.2299 106.72C53.7699 106.72 54.9799 107.65 55.2699 109.07H54.4999C54.1999 108.04 53.3199 107.41 52.1999 107.41C50.6299 107.41 49.5799 108.61 49.5799 110.42C49.5799 112.22 50.6299 113.42 52.1999 113.42C53.3299 113.42 54.2299 112.81 54.5399 111.85H55.3099C54.9799 113.2 53.7299 114.11 52.1899 114.11ZM56.0651 111.58C56.0651 110.1 57.1051 109.03 58.5251 109.03C59.9451 109.03 60.9851 110.1 60.9851 111.58C60.9851 113.05 59.9451 114.12 58.5251 114.12C57.1051 114.12 56.0651 113.05 56.0651 111.58ZM56.7651 111.57C56.7651 112.71 57.4851 113.5 58.5251 113.5C59.5551 113.5 60.2851 112.71 60.2851 111.57C60.2851 110.45 59.5551 109.65 58.5251 109.65C57.4851 109.65 56.7651 110.45 56.7651 111.57ZM64.6187 109.1V109.72H64.2387C63.3487 109.72 62.7787 110.32 62.7787 111.24V114H62.0887V109.16H62.7387L62.7887 109.91C62.9787 109.39 63.4887 109.05 64.1687 109.05C64.3187 109.05 64.4487 109.06 64.6187 109.1ZM65.5359 116.11V109.16H66.1359L66.2059 110.14C66.5459 109.39 67.2259 109.03 68.0359 109.03C69.4359 109.03 70.2759 110.1 70.2759 111.56C70.2759 113.02 69.4659 114.12 68.0359 114.12C67.2159 114.12 66.5659 113.77 66.2259 113.07V116.11H65.5359ZM66.2359 111.58C66.2359 112.69 66.8559 113.5 67.9159 113.5C68.9659 113.5 69.5759 112.69 69.5759 111.58C69.5759 110.46 68.9659 109.66 67.9159 109.66C66.8559 109.66 66.2359 110.46 66.2359 111.58ZM71.0358 111.58C71.0358 110.1 72.0758 109.03 73.4958 109.03C74.9158 109.03 75.9558 110.1 75.9558 111.58C75.9558 113.05 74.9158 114.12 73.4958 114.12C72.0758 114.12 71.0358 113.05 71.0358 111.58ZM71.7358 111.57C71.7358 112.71 72.4558 113.5 73.4958 113.5C74.5258 113.5 75.2558 112.71 75.2558 111.57C75.2558 110.45 74.5258 109.65 73.4958 109.65C72.4558 109.65 71.7358 110.45 71.7358 111.57ZM79.5894 109.1V109.72H79.2094C78.3194 109.72 77.7494 110.32 77.7494 111.24V114H77.0594V109.16H77.7094L77.7594 109.91C77.9494 109.39 78.4594 109.05 79.1394 109.05C79.2894 109.05 79.4194 109.06 79.5894 109.1ZM81.7013 114.12C80.6713 114.12 80.0613 113.54 80.0613 112.69C80.0613 111.8 80.7413 111.24 81.8713 111.15L83.4713 111.02V110.86C83.4713 109.91 82.9013 109.61 82.1913 109.61C81.3513 109.61 80.8513 109.99 80.8513 110.64H80.2213C80.2213 109.66 81.0213 109.03 82.2113 109.03C83.3313 109.03 84.1513 109.59 84.1513 110.87V114H83.5713L83.4813 113.15C83.1813 113.76 82.5213 114.12 81.7013 114.12ZM81.8613 113.56C82.8813 113.56 83.4713 112.85 83.4713 111.8V111.54L82.0413 111.65C81.1313 111.73 80.7613 112.13 80.7613 112.67C80.7613 113.26 81.2013 113.56 81.8613 113.56ZM86.558 114H85.878V109.74H84.908V109.16H85.878V107.63H86.558V109.16H87.528V109.74H86.558V114ZM90.4077 114.12C88.9877 114.12 88.0377 113.1 88.0377 111.58C88.0377 110.07 88.9777 109.03 90.3577 109.03C91.6677 109.03 92.5577 109.96 92.5577 111.33V111.67H88.7077C88.7577 112.85 89.3777 113.53 90.4177 113.53C91.2077 113.53 91.7177 113.19 91.8977 112.55H92.5577C92.2977 113.57 91.5477 114.12 90.4077 114.12ZM90.3577 109.62C89.4477 109.62 88.8477 110.22 88.7277 111.17H91.8677C91.8677 110.24 91.2677 109.62 90.3577 109.62Z" fill="#475467"/>
<path d="M125.8 89H235.6V131H125.8V89Z" fill="white"/>
<path d="M125.8 89.5H235.6V88.5H125.8V89.5ZM235.6 130.5H125.8V131.5H235.6V130.5Z" fill="#EAECF0"/>
<path d="M167.29 106.84V114H166.57V106.84H167.29ZM169.571 114H168.881V109.16H169.481L169.581 110C169.901 109.38 170.541 109.03 171.241 109.03C172.571 109.03 173.121 109.82 173.121 111.04V114H172.431V111.19C172.431 110.06 171.921 109.66 171.121 109.66C170.131 109.66 169.571 110.38 169.571 111.47V114ZM174.028 112.64H174.688C174.688 113.2 175.108 113.55 175.788 113.55C176.538 113.55 176.978 113.23 176.978 112.71C176.978 112.31 176.778 112.08 176.208 111.94L175.378 111.73C174.538 111.52 174.128 111.08 174.128 110.42C174.128 109.57 174.838 109.03 175.878 109.03C176.898 109.03 177.558 109.59 177.588 110.49H176.918C176.898 109.93 176.508 109.6 175.858 109.6C175.178 109.6 174.798 109.89 174.798 110.41C174.798 110.78 175.058 111.04 175.588 111.17L176.418 111.38C177.258 111.59 177.638 111.98 177.638 112.68C177.638 113.55 176.898 114.12 175.798 114.12C174.708 114.12 174.028 113.54 174.028 112.64ZM179.883 114H179.203V109.74H178.233V109.16H179.203V107.63H179.883V109.16H180.853V109.74H179.883V114ZM183.064 114.12C182.034 114.12 181.424 113.54 181.424 112.69C181.424 111.8 182.104 111.24 183.234 111.15L184.834 111.02V110.86C184.834 109.91 184.264 109.61 183.554 109.61C182.714 109.61 182.214 109.99 182.214 110.64H181.584C181.584 109.66 182.384 109.03 183.574 109.03C184.694 109.03 185.514 109.59 185.514 110.87V114H184.934L184.844 113.15C184.544 113.76 183.884 114.12 183.064 114.12ZM183.224 113.56C184.244 113.56 184.834 112.85 184.834 111.8V111.54L183.404 111.65C182.494 111.73 182.124 112.13 182.124 112.67C182.124 113.26 182.564 113.56 183.224 113.56ZM187.588 114H186.898V109.16H187.498L187.598 110C187.918 109.38 188.558 109.03 189.258 109.03C190.588 109.03 191.138 109.82 191.138 111.04V114H190.448V111.19C190.448 110.06 189.938 109.66 189.138 109.66C188.148 109.66 187.588 110.38 187.588 111.47V114ZM193.624 114H192.944V109.74H191.974V109.16H192.944V107.63H193.624V109.16H194.594V109.74H193.624V114Z" fill="#475467"/>
<path d="M235.6 89H345.4V131H235.6V89Z" fill="white"/>
<path d="M235.6 89.5H345.4V88.5H235.6V89.5ZM345.4 130.5H235.6V131.5H345.4V130.5Z" fill="#EAECF0"/>
<path d="M286.81 107.49H285.35V106.84H287.5V114H286.81V107.49ZM288.89 110.42C288.89 108.2 289.98 106.7 291.76 106.7C293.53 106.7 294.62 108.2 294.62 110.42C294.62 112.65 293.55 114.13 291.76 114.13C289.96 114.13 288.89 112.65 288.89 110.42ZM289.6 110.42C289.6 112.28 290.39 113.48 291.76 113.48C293.13 113.48 293.92 112.28 293.92 110.42C293.92 108.55 293.13 107.36 291.76 107.36C290.39 107.36 289.6 108.55 289.6 110.42Z" fill="#475467"/>
<path d="M345.4 89H455.2V131H345.4V89Z" fill="white"/>
<path d="M345.4 89.5H455.2V88.5H345.4V89.5ZM455.2 130.5H345.4V131.5H455.2V130.5Z" fill="#EAECF0"/>
<g style="mix-blend-mode:multiply">
<rect x="378.8" y="99.5" width="43" height="21" rx="10.5" fill="#ECFDF3"/>
<rect x="378.8" y="99.5" width="43" height="21" rx="10.5" stroke="#ABEFC6"/>
<path d="M388.179 114H387.199V106.77H389.929C391.479 106.77 392.399 107.59 392.399 108.94C392.399 109.94 391.899 110.66 390.999 110.95L392.469 114H391.379L390.029 111.14H388.179V114ZM388.179 107.65V110.27H389.939C390.849 110.27 391.369 109.78 391.369 108.95C391.369 108.11 390.829 107.65 389.929 107.65H388.179ZM395.341 114.12C393.901 114.12 392.911 113.08 392.911 111.56C392.911 110.03 393.881 108.97 395.301 108.97C396.691 108.97 397.601 109.93 397.601 111.38V111.73L393.821 111.74C393.891 112.77 394.431 113.34 395.361 113.34C396.091 113.34 396.571 113.04 396.731 112.48H397.611C397.371 113.53 396.551 114.12 395.341 114.12ZM395.301 109.76C394.481 109.76 393.961 110.25 393.841 111.11H396.661C396.661 110.3 396.131 109.76 395.301 109.76ZM400.032 114.12C398.982 114.12 398.362 113.53 398.362 112.64C398.362 111.74 399.032 111.18 400.182 111.09L401.722 110.97V110.83C401.722 110.01 401.232 109.72 400.572 109.72C399.782 109.72 399.332 110.07 399.332 110.66H398.512C398.512 109.64 399.352 108.97 400.612 108.97C401.822 108.97 402.642 109.61 402.642 110.93V114H401.842L401.742 113.21C401.492 113.77 400.822 114.12 400.032 114.12ZM400.302 113.39C401.192 113.39 401.732 112.81 401.732 111.89V111.63L400.482 111.73C399.652 111.81 399.312 112.13 399.312 112.61C399.312 113.13 399.692 113.39 400.302 113.39ZM405.904 114.12C404.484 114.12 403.624 113.06 403.624 111.57C403.624 110.07 404.494 108.97 405.944 108.97C406.694 108.97 407.324 109.3 407.654 109.9V106.64H408.584V114H407.744L407.664 113.11C407.344 113.78 406.684 114.12 405.904 114.12ZM406.094 113.27C407.054 113.27 407.644 112.56 407.644 111.54C407.644 110.54 407.054 109.82 406.094 109.82C405.134 109.82 404.574 110.54 404.574 111.54C404.574 112.55 405.134 113.27 406.094 113.27ZM409.47 116.19V115.42H410.1C410.55 115.42 410.91 115.35 411.14 114.73L411.31 114.26L409.34 109.11H410.33L411.75 113.05L413.2 109.11H414.17L411.86 115.1C411.53 115.94 411.04 116.29 410.29 116.29C409.98 116.29 409.72 116.25 409.47 116.19Z" fill="#067647"/>
</g>
<path d="M455.2 89H565V131H455.2V89Z" fill="white"/>
<path d="M455.2 89.5H565V88.5H455.2V89.5ZM565 130.5H455.2V131.5H565V130.5Z" fill="#EAECF0"/>
<path d="M501.46 114L498.7 106.69H500.06L501.66 110.9C501.82 111.34 501.96 111.77 502.12 112.36C502.3 111.72 502.45 111.27 502.59 110.9L504.17 106.69H505.5L502.78 114H501.46ZM506.842 108.07C506.422 108.07 506.092 107.74 506.092 107.33C506.092 106.92 506.422 106.6 506.842 106.6C507.242 106.6 507.572 106.92 507.572 107.33C507.572 107.74 507.242 108.07 506.842 108.07ZM506.232 114V109.06H507.452V114H506.232ZM510.922 114.13C509.452 114.13 508.422 113.06 508.422 111.53C508.422 109.98 509.432 108.91 510.882 108.91C512.362 108.91 513.302 109.9 513.302 111.44V111.81L509.582 111.82C509.672 112.69 510.132 113.13 510.942 113.13C511.612 113.13 512.052 112.87 512.192 112.4H513.322C513.112 113.48 512.212 114.13 510.922 114.13ZM510.892 109.91C510.172 109.91 509.732 110.3 509.612 111.04H512.092C512.092 110.36 511.622 109.91 510.892 109.91ZM515.154 114L513.554 109.06H514.824L515.474 111.18C515.584 111.57 515.684 112 515.774 112.46C515.864 111.98 515.954 111.67 516.114 111.18L516.794 109.06H518.034L518.694 111.18C518.754 111.38 518.954 112.12 519.014 112.45C519.094 112.08 519.254 111.49 519.344 111.18L520.004 109.06H521.294L519.584 114H518.444L517.764 111.86C517.564 111.21 517.454 110.74 517.414 110.49C517.364 110.72 517.274 111.07 517.024 111.88L516.344 114H515.154Z" fill="#014DAF"/>
<path d="M16 131H125.8V173H16V131Z" fill="white"/>
<path d="M16 131.5H125.8V130.5H16V131.5ZM125.8 172.5H16V173.5H125.8V172.5Z" fill="#EAECF0"/>
<path d="M52.1899 156.11C50.1899 156.11 48.8299 154.62 48.8299 152.42C48.8299 150.22 50.2099 148.72 52.2299 148.72C53.7699 148.72 54.9799 149.65 55.2699 151.07H54.4999C54.1999 150.04 53.3199 149.41 52.1999 149.41C50.6299 149.41 49.5799 150.61 49.5799 152.42C49.5799 154.22 50.6299 155.42 52.1999 155.42C53.3299 155.42 54.2299 154.81 54.5399 153.85H55.3099C54.9799 155.2 53.7299 156.11 52.1899 156.11ZM56.0651 153.58C56.0651 152.1 57.1051 151.03 58.5251 151.03C59.9451 151.03 60.9851 152.1 60.9851 153.58C60.9851 155.05 59.9451 156.12 58.5251 156.12C57.1051 156.12 56.0651 155.05 56.0651 153.58ZM56.7651 153.57C56.7651 154.71 57.4851 155.5 58.5251 155.5C59.5551 155.5 60.2851 154.71 60.2851 153.57C60.2851 152.45 59.5551 151.65 58.5251 151.65C57.4851 151.65 56.7651 152.45 56.7651 153.57ZM64.6187 151.1V151.72H64.2387C63.3487 151.72 62.7787 152.32 62.7787 153.24V156H62.0887V151.16H62.7387L62.7887 151.91C62.9787 151.39 63.4887 151.05 64.1687 151.05C64.3187 151.05 64.4487 151.06 64.6187 151.1ZM65.5359 158.11V151.16H66.1359L66.2059 152.14C66.5459 151.39 67.2259 151.03 68.0359 151.03C69.4359 151.03 70.2759 152.1 70.2759 153.56C70.2759 155.02 69.4659 156.12 68.0359 156.12C67.2159 156.12 66.5659 155.77 66.2259 155.07V158.11H65.5359ZM66.2359 153.58C66.2359 154.69 66.8559 155.5 67.9159 155.5C68.9659 155.5 69.5759 154.69 69.5759 153.58C69.5759 152.46 68.9659 151.66 67.9159 151.66C66.8559 151.66 66.2359 152.46 66.2359 153.58ZM71.0358 153.58C71.0358 152.1 72.0758 151.03 73.4958 151.03C74.9158 151.03 75.9558 152.1 75.9558 153.58C75.9558 155.05 74.9158 156.12 73.4958 156.12C72.0758 156.12 71.0358 155.05 71.0358 153.58ZM71.7358 153.57C71.7358 154.71 72.4558 155.5 73.4958 155.5C74.5258 155.5 75.2558 154.71 75.2558 153.57C75.2558 152.45 74.5258 151.65 73.4958 151.65C72.4558 151.65 71.7358 152.45 71.7358 153.57ZM79.5894 151.1V151.72H79.2094C78.3194 151.72 77.7494 152.32 77.7494 153.24V156H77.0594V151.16H77.7094L77.7594 151.91C77.9494 151.39 78.4594 151.05 79.1394 151.05C79.2894 151.05 79.4194 151.06 79.5894 151.1ZM81.7013 156.12C80.6713 156.12 80.0613 155.54 80.0613 154.69C80.0613 153.8 80.7413 153.24 81.8713 153.15L83.4713 153.02V152.86C83.4713 151.91 82.9013 151.61 82.1913 151.61C81.3513 151.61 80.8513 151.99 80.8513 152.64H80.2213C80.2213 151.66 81.0213 151.03 82.2113 151.03C83.3313 151.03 84.1513 151.59 84.1513 152.87V156H83.5713L83.4813 155.15C83.1813 155.76 82.5213 156.12 81.7013 156.12ZM81.8613 155.56C82.8813 155.56 83.4713 154.85 83.4713 153.8V153.54L82.0413 153.65C81.1313 153.73 80.7613 154.13 80.7613 154.67C80.7613 155.26 81.2013 155.56 81.8613 155.56ZM86.558 156H85.878V151.74H84.908V151.16H85.878V149.63H86.558V151.16H87.528V151.74H86.558V156ZM90.4077 156.12C88.9877 156.12 88.0377 155.1 88.0377 153.58C88.0377 152.07 88.9777 151.03 90.3577 151.03C91.6677 151.03 92.5577 151.96 92.5577 153.33V153.67H88.7077C88.7577 154.85 89.3777 155.53 90.4177 155.53C91.2077 155.53 91.7177 155.19 91.8977 154.55H92.5577C92.2977 155.57 91.5477 156.12 90.4077 156.12ZM90.3577 151.62C89.4477 151.62 88.8477 152.22 88.7277 153.17H91.8677C91.8677 152.24 91.2677 151.62 90.3577 151.62Z" fill="#475467"/>
<path d="M125.8 131H235.6V173H125.8V131Z" fill="white"/>
<path d="M125.8 131.5H235.6V130.5H125.8V131.5ZM235.6 172.5H125.8V173.5H235.6V172.5Z" fill="#EAECF0"/>
<path d="M156.3 153.37H154.29V156H153.57V148.84H156.3C157.68 148.84 158.55 149.74 158.55 151.09C158.55 152.39 157.67 153.37 156.3 153.37ZM156.2 149.49H154.29V152.72H156.16C157.2 152.72 157.8 152.06 157.8 151.08C157.8 150.09 157.19 149.49 156.2 149.49ZM161.378 156.12C159.958 156.12 159.008 155.1 159.008 153.58C159.008 152.07 159.948 151.03 161.328 151.03C162.638 151.03 163.528 151.96 163.528 153.33V153.67H159.678C159.728 154.85 160.348 155.53 161.388 155.53C162.178 155.53 162.688 155.19 162.868 154.55H163.528C163.268 155.57 162.518 156.12 161.378 156.12ZM161.328 151.62C160.418 151.62 159.818 152.22 159.698 153.17H162.838C162.838 152.24 162.238 151.62 161.328 151.62ZM167.161 151.1V151.72H166.781C165.891 151.72 165.321 152.32 165.321 153.24V156H164.631V151.16H165.281L165.331 151.91C165.521 151.39 166.031 151.05 166.711 151.05C166.861 151.05 166.991 151.06 167.161 151.1ZM167.668 154.64H168.328C168.328 155.2 168.748 155.55 169.428 155.55C170.178 155.55 170.618 155.23 170.618 154.71C170.618 154.31 170.418 154.08 169.848 153.94L169.018 153.73C168.178 153.52 167.768 153.08 167.768 152.42C167.768 151.57 168.478 151.03 169.518 151.03C170.538 151.03 171.198 151.59 171.228 152.49H170.558C170.538 151.93 170.148 151.6 169.498 151.6C168.818 151.6 168.438 151.89 168.438 152.41C168.438 152.78 168.698 153.04 169.228 153.17L170.058 153.38C170.898 153.59 171.278 153.98 171.278 154.68C171.278 155.55 170.538 156.12 169.438 156.12C168.348 156.12 167.668 155.54 167.668 154.64ZM172.074 153.58C172.074 152.1 173.114 151.03 174.534 151.03C175.954 151.03 176.994 152.1 176.994 153.58C176.994 155.05 175.954 156.12 174.534 156.12C173.114 156.12 172.074 155.05 172.074 153.58ZM172.774 153.57C172.774 154.71 173.494 155.5 174.534 155.5C175.564 155.5 176.294 154.71 176.294 153.57C176.294 152.45 175.564 151.65 174.534 151.65C173.494 151.65 172.774 152.45 172.774 153.57ZM178.788 156H178.098V151.16H178.698L178.798 152C179.118 151.38 179.758 151.03 180.458 151.03C181.788 151.03 182.338 151.82 182.338 153.04V156H181.648V153.19C181.648 152.06 181.138 151.66 180.338 151.66C179.348 151.66 178.788 152.38 178.788 153.47V156ZM185.103 156.12C184.073 156.12 183.463 155.54 183.463 154.69C183.463 153.8 184.143 153.24 185.273 153.15L186.873 153.02V152.86C186.873 151.91 186.303 151.61 185.593 151.61C184.753 151.61 184.253 151.99 184.253 152.64H183.623C183.623 151.66 184.423 151.03 185.613 151.03C186.733 151.03 187.553 151.59 187.553 152.87V156H186.973L186.883 155.15C186.583 155.76 185.923 156.12 185.103 156.12ZM185.263 155.56C186.283 155.56 186.873 154.85 186.873 153.8V153.54L185.443 153.65C184.533 153.73 184.163 154.13 184.163 154.67C184.163 155.26 184.603 155.56 185.263 155.56ZM189.658 156H188.968V148.71H189.658V156ZM191.465 149.83C191.185 149.83 190.955 149.6 190.955 149.32C190.955 149.04 191.185 148.8 191.465 148.8C191.745 148.8 191.985 149.04 191.985 149.32C191.985 149.6 191.745 149.83 191.465 149.83ZM191.125 156V151.16H191.815V156H191.125ZM196.574 156H192.924V155.45L195.724 151.74H192.924V151.16H196.574V151.72L193.764 155.42H196.574V156ZM199.561 156.12C198.141 156.12 197.191 155.1 197.191 153.58C197.191 152.07 198.131 151.03 199.511 151.03C200.821 151.03 201.711 151.96 201.711 153.33V153.67H197.861C197.911 154.85 198.531 155.53 199.571 155.53C200.361 155.53 200.871 155.19 201.051 154.55H201.711C201.451 155.57 200.701 156.12 199.561 156.12ZM199.511 151.62C198.601 151.62 198.001 152.22 197.881 153.17H201.021C201.021 152.24 200.421 151.62 199.511 151.62ZM204.714 156.12C203.304 156.12 202.474 155.04 202.474 153.59C202.474 152.13 203.304 151.03 204.744 151.03C205.544 151.03 206.184 151.38 206.524 152.08V148.71H207.214V156H206.614L206.544 155.01C206.204 155.76 205.524 156.12 204.714 156.12ZM204.834 155.49C205.894 155.49 206.514 154.69 206.514 153.57C206.514 152.46 205.894 151.65 204.834 151.65C203.784 151.65 203.174 152.46 203.174 153.57C203.174 154.69 203.784 155.49 204.834 155.49Z" fill="#475467"/>
<path d="M235.6 131H345.4V173H235.6V131Z" fill="white"/>
<path d="M235.6 131.5H345.4V130.5H235.6V131.5ZM345.4 172.5H235.6V173.5H345.4V172.5Z" fill="#EAECF0"/>
<path d="M286.81 149.49H285.35V148.84H287.5V156H286.81V149.49ZM288.89 152.42C288.89 150.2 289.98 148.7 291.76 148.7C293.53 148.7 294.62 150.2 294.62 152.42C294.62 154.65 293.55 156.13 291.76 156.13C289.96 156.13 288.89 154.65 288.89 152.42ZM289.6 152.42C289.6 154.28 290.39 155.48 291.76 155.48C293.13 155.48 293.92 154.28 293.92 152.42C293.92 150.55 293.13 149.36 291.76 149.36C290.39 149.36 289.6 150.55 289.6 152.42Z" fill="#475467"/>
<path d="M345.4 131H455.2V173H345.4V131Z" fill="white"/>
<path d="M345.4 131.5H455.2V130.5H345.4V131.5ZM455.2 172.5H345.4V173.5H455.2V172.5Z" fill="#EAECF0"/>
<g style="mix-blend-mode:multiply">
<rect x="367.3" y="141.5" width="66" height="21" rx="10.5" fill="#FFFAEB"/>
<rect x="367.3" y="141.5" width="66" height="21" rx="10.5" stroke="#FEDF89"/>
<path d="M376.827 148.77V156H375.847V148.77H376.827ZM379.293 156H378.353V151.11H379.203L379.303 151.86C379.613 151.3 380.233 150.97 380.923 150.97C382.213 150.97 382.803 151.76 382.803 153.01V156H381.863V153.22C381.863 152.23 381.403 151.83 380.683 151.83C379.803 151.83 379.293 152.46 379.293 153.41V156ZM389.809 153.42H387.979V156H386.999V148.77H389.809C391.229 148.77 392.139 149.7 392.139 151.09C392.139 152.44 391.219 153.42 389.809 153.42ZM389.639 149.65H387.979V152.54H389.599C390.569 152.54 391.109 151.97 391.109 151.08C391.109 150.17 390.559 149.65 389.639 149.65ZM395.889 151.07V151.93H395.469C394.579 151.93 394.029 152.47 394.029 153.41V156H393.089V151.12H393.969L394.029 151.86C394.229 151.35 394.719 151.01 395.389 151.01C395.559 151.01 395.699 151.03 395.889 151.07ZM396.275 153.55C396.275 152.04 397.355 150.98 398.825 150.98C400.285 150.98 401.365 152.04 401.365 153.55C401.365 155.06 400.285 156.12 398.825 156.12C397.355 156.12 396.275 155.06 396.275 153.55ZM397.225 153.55C397.225 154.57 397.875 155.28 398.825 155.28C399.765 155.28 400.425 154.57 400.425 153.55C400.425 152.53 399.765 151.82 398.825 151.82C397.875 151.82 397.225 152.53 397.225 153.55ZM402.096 153.43C402.096 152.05 402.986 150.97 404.406 150.97C405.196 150.97 405.806 151.33 406.116 151.94L406.186 151.11H407.026V155.8C407.026 157.34 406.076 158.32 404.576 158.32C403.246 158.32 402.336 157.57 402.156 156.33H403.096C403.216 157.05 403.756 157.47 404.576 157.47C405.496 157.47 406.096 156.87 406.096 155.94V154.96C405.776 155.53 405.136 155.87 404.366 155.87C402.976 155.87 402.096 154.8 402.096 153.43ZM403.036 153.41C403.036 154.33 403.606 155.05 404.526 155.05C405.476 155.05 406.056 154.37 406.056 153.41C406.056 152.47 405.496 151.79 404.536 151.79C403.596 151.79 403.036 152.51 403.036 153.41ZM411.182 151.07V151.93H410.762C409.872 151.93 409.322 152.47 409.322 153.41V156H408.382V151.12H409.262L409.322 151.86C409.522 151.35 410.012 151.01 410.682 151.01C410.852 151.01 410.992 151.03 411.182 151.07ZM413.998 156.12C412.558 156.12 411.568 155.08 411.568 153.56C411.568 152.03 412.538 150.97 413.958 150.97C415.348 150.97 416.258 151.93 416.258 153.38V153.73L412.478 153.74C412.548 154.77 413.088 155.34 414.018 155.34C414.748 155.34 415.228 155.04 415.388 154.48H416.268C416.028 155.53 415.208 156.12 413.998 156.12ZM413.958 151.76C413.138 151.76 412.618 152.25 412.498 153.11H415.318C415.318 152.3 414.788 151.76 413.958 151.76ZM416.908 154.58H417.808C417.808 155.08 418.188 155.38 418.808 155.38C419.468 155.38 419.848 155.11 419.848 154.66C419.848 154.33 419.688 154.13 419.178 154L418.318 153.8C417.448 153.59 417.038 153.16 417.038 152.44C417.038 151.54 417.798 150.97 418.878 150.97C419.948 150.97 420.648 151.57 420.668 152.5H419.768C419.748 152.01 419.418 151.7 418.848 151.7C418.258 151.7 417.928 151.96 417.928 152.41C417.928 152.74 418.168 152.96 418.648 153.08L419.508 153.29C420.338 153.49 420.748 153.87 420.748 154.6C420.748 155.53 419.948 156.12 418.788 156.12C417.638 156.12 416.908 155.51 416.908 154.58ZM421.39 154.58H422.29C422.29 155.08 422.67 155.38 423.29 155.38C423.95 155.38 424.33 155.11 424.33 154.66C424.33 154.33 424.17 154.13 423.66 154L422.8 153.8C421.93 153.59 421.52 153.16 421.52 152.44C421.52 151.54 422.28 150.97 423.36 150.97C424.43 150.97 425.13 151.57 425.15 152.5H424.25C424.23 152.01 423.9 151.7 423.33 151.7C422.74 151.7 422.41 151.96 422.41 152.41C422.41 152.74 422.65 152.96 423.13 153.08L423.99 153.29C424.82 153.49 425.23 153.87 425.23 154.6C425.23 155.53 424.43 156.12 423.27 156.12C422.12 156.12 421.39 155.51 421.39 154.58Z" fill="#B54708"/>
</g>
<path d="M455.2 131H565V173H455.2V131Z" fill="white"/>
<path d="M455.2 131.5H565V130.5H455.2V131.5ZM565 172.5H455.2V173.5H565V172.5Z" fill="#EAECF0"/>
<path d="M501.46 156L498.7 148.69H500.06L501.66 152.9C501.82 153.34 501.96 153.77 502.12 154.36C502.3 153.72 502.45 153.27 502.59 152.9L504.17 148.69H505.5L502.78 156H501.46ZM506.842 150.07C506.422 150.07 506.092 149.74 506.092 149.33C506.092 148.92 506.422 148.6 506.842 148.6C507.242 148.6 507.572 148.92 507.572 149.33C507.572 149.74 507.242 150.07 506.842 150.07ZM506.232 156V151.06H507.452V156H506.232ZM510.922 156.13C509.452 156.13 508.422 155.06 508.422 153.53C508.422 151.98 509.432 150.91 510.882 150.91C512.362 150.91 513.302 151.9 513.302 153.44V153.81L509.582 153.82C509.672 154.69 510.132 155.13 510.942 155.13C511.612 155.13 512.052 154.87 512.192 154.4H513.322C513.112 155.48 512.212 156.13 510.922 156.13ZM510.892 151.91C510.172 151.91 509.732 152.3 509.612 153.04H512.092C512.092 152.36 511.622 151.91 510.892 151.91ZM515.154 156L513.554 151.06H514.824L515.474 153.18C515.584 153.57 515.684 154 515.774 154.46C515.864 153.98 515.954 153.67 516.114 153.18L516.794 151.06H518.034L518.694 153.18C518.754 153.38 518.954 154.12 519.014 154.45C519.094 154.08 519.254 153.49 519.344 153.18L520.004 151.06H521.294L519.584 156H518.444L517.764 153.86C517.564 153.21 517.454 152.74 517.414 152.49C517.364 152.72 517.274 153.07 517.024 153.88L516.344 156H515.154Z" fill="#014DAF"/>
<path d="M16 173H125.8V215H16V173Z" fill="white"/>
<path d="M16 173.5H125.8V172.5H16V173.5ZM125.8 214.5H16V215.5H125.8V214.5Z" fill="#EAECF0"/>
<path d="M52.1899 198.11C50.1899 198.11 48.8299 196.62 48.8299 194.42C48.8299 192.22 50.2099 190.72 52.2299 190.72C53.7699 190.72 54.9799 191.65 55.2699 193.07H54.4999C54.1999 192.04 53.3199 191.41 52.1999 191.41C50.6299 191.41 49.5799 192.61 49.5799 194.42C49.5799 196.22 50.6299 197.42 52.1999 197.42C53.3299 197.42 54.2299 196.81 54.5399 195.85H55.3099C54.9799 197.2 53.7299 198.11 52.1899 198.11ZM56.0651 195.58C56.0651 194.1 57.1051 193.03 58.5251 193.03C59.9451 193.03 60.9851 194.1 60.9851 195.58C60.9851 197.05 59.9451 198.12 58.5251 198.12C57.1051 198.12 56.0651 197.05 56.0651 195.58ZM56.7651 195.57C56.7651 196.71 57.4851 197.5 58.5251 197.5C59.5551 197.5 60.2851 196.71 60.2851 195.57C60.2851 194.45 59.5551 193.65 58.5251 193.65C57.4851 193.65 56.7651 194.45 56.7651 195.57ZM64.6187 193.1V193.72H64.2387C63.3487 193.72 62.7787 194.32 62.7787 195.24V198H62.0887V193.16H62.7387L62.7887 193.91C62.9787 193.39 63.4887 193.05 64.1687 193.05C64.3187 193.05 64.4487 193.06 64.6187 193.1ZM65.5359 200.11V193.16H66.1359L66.2059 194.14C66.5459 193.39 67.2259 193.03 68.0359 193.03C69.4359 193.03 70.2759 194.1 70.2759 195.56C70.2759 197.02 69.4659 198.12 68.0359 198.12C67.2159 198.12 66.5659 197.77 66.2259 197.07V200.11H65.5359ZM66.2359 195.58C66.2359 196.69 66.8559 197.5 67.9159 197.5C68.9659 197.5 69.5759 196.69 69.5759 195.58C69.5759 194.46 68.9659 193.66 67.9159 193.66C66.8559 193.66 66.2359 194.46 66.2359 195.58ZM71.0358 195.58C71.0358 194.1 72.0758 193.03 73.4958 193.03C74.9158 193.03 75.9558 194.1 75.9558 195.58C75.9558 197.05 74.9158 198.12 73.4958 198.12C72.0758 198.12 71.0358 197.05 71.0358 195.58ZM71.7358 195.57C71.7358 196.71 72.4558 197.5 73.4958 197.5C74.5258 197.5 75.2558 196.71 75.2558 195.57C75.2558 194.45 74.5258 193.65 73.4958 193.65C72.4558 193.65 71.7358 194.45 71.7358 195.57ZM79.5894 193.1V193.72H79.2094C78.3194 193.72 77.7494 194.32 77.7494 195.24V198H77.0594V193.16H77.7094L77.7594 193.91C77.9494 193.39 78.4594 193.05 79.1394 193.05C79.2894 193.05 79.4194 193.06 79.5894 193.1ZM81.7013 198.12C80.6713 198.12 80.0613 197.54 80.0613 196.69C80.0613 195.8 80.7413 195.24 81.8713 195.15L83.4713 195.02V194.86C83.4713 193.91 82.9013 193.61 82.1913 193.61C81.3513 193.61 80.8513 193.99 80.8513 194.64H80.2213C80.2213 193.66 81.0213 193.03 82.2113 193.03C83.3313 193.03 84.1513 193.59 84.1513 194.87V198H83.5713L83.4813 197.15C83.1813 197.76 82.5213 198.12 81.7013 198.12ZM81.8613 197.56C82.8813 197.56 83.4713 196.85 83.4713 195.8V195.54L82.0413 195.65C81.1313 195.73 80.7613 196.13 80.7613 196.67C80.7613 197.26 81.2013 197.56 81.8613 197.56ZM86.558 198H85.878V193.74H84.908V193.16H85.878V191.63H86.558V193.16H87.528V193.74H86.558V198ZM90.4077 198.12C88.9877 198.12 88.0377 197.1 88.0377 195.58C88.0377 194.07 88.9777 193.03 90.3577 193.03C91.6677 193.03 92.5577 193.96 92.5577 195.33V195.67H88.7077C88.7577 196.85 89.3777 197.53 90.4177 197.53C91.2077 197.53 91.7177 197.19 91.8977 196.55H92.5577C92.2977 197.57 91.5477 198.12 90.4077 198.12ZM90.3577 193.62C89.4477 193.62 88.8477 194.22 88.7277 195.17H91.8677C91.8677 194.24 91.2677 193.62 90.3577 193.62Z" fill="#475467"/>
<path d="M125.8 173H235.6V215H125.8V173Z" fill="white"/>
<path d="M125.8 173.5H235.6V172.5H125.8V173.5ZM235.6 214.5H125.8V215.5H235.6V214.5Z" fill="#EAECF0"/>
<path d="M156.3 195.37H154.29V198H153.57V190.84H156.3C157.68 190.84 158.55 191.74 158.55 193.09C158.55 194.39 157.67 195.37 156.3 195.37ZM156.2 191.49H154.29V194.72H156.16C157.2 194.72 157.8 194.06 157.8 193.08C157.8 192.09 157.19 191.49 156.2 191.49ZM161.378 198.12C159.958 198.12 159.008 197.1 159.008 195.58C159.008 194.07 159.948 193.03 161.328 193.03C162.638 193.03 163.528 193.96 163.528 195.33V195.67H159.678C159.728 196.85 160.348 197.53 161.388 197.53C162.178 197.53 162.688 197.19 162.868 196.55H163.528C163.268 197.57 162.518 198.12 161.378 198.12ZM161.328 193.62C160.418 193.62 159.818 194.22 159.698 195.17H162.838C162.838 194.24 162.238 193.62 161.328 193.62ZM167.161 193.1V193.72H166.781C165.891 193.72 165.321 194.32 165.321 195.24V198H164.631V193.16H165.281L165.331 193.91C165.521 193.39 166.031 193.05 166.711 193.05C166.861 193.05 166.991 193.06 167.161 193.1ZM167.668 196.64H168.328C168.328 197.2 168.748 197.55 169.428 197.55C170.178 197.55 170.618 197.23 170.618 196.71C170.618 196.31 170.418 196.08 169.848 195.94L169.018 195.73C168.178 195.52 167.768 195.08 167.768 194.42C167.768 193.57 168.478 193.03 169.518 193.03C170.538 193.03 171.198 193.59 171.228 194.49H170.558C170.538 193.93 170.148 193.6 169.498 193.6C168.818 193.6 168.438 193.89 168.438 194.41C168.438 194.78 168.698 195.04 169.228 195.17L170.058 195.38C170.898 195.59 171.278 195.98 171.278 196.68C171.278 197.55 170.538 198.12 169.438 198.12C168.348 198.12 167.668 197.54 167.668 196.64ZM172.074 195.58C172.074 194.1 173.114 193.03 174.534 193.03C175.954 193.03 176.994 194.1 176.994 195.58C176.994 197.05 175.954 198.12 174.534 198.12C173.114 198.12 172.074 197.05 172.074 195.58ZM172.774 195.57C172.774 196.71 173.494 197.5 174.534 197.5C175.564 197.5 176.294 196.71 176.294 195.57C176.294 194.45 175.564 193.65 174.534 193.65C173.494 193.65 172.774 194.45 172.774 195.57ZM178.788 198H178.098V193.16H178.698L178.798 194C179.118 193.38 179.758 193.03 180.458 193.03C181.788 193.03 182.338 193.82 182.338 195.04V198H181.648V195.19C181.648 194.06 181.138 193.66 180.338 193.66C179.348 193.66 178.788 194.38 178.788 195.47V198ZM185.103 198.12C184.073 198.12 183.463 197.54 183.463 196.69C183.463 195.8 184.143 195.24 185.273 195.15L186.873 195.02V194.86C186.873 193.91 186.303 193.61 185.593 193.61C184.753 193.61 184.253 193.99 184.253 194.64H183.623C183.623 193.66 184.423 193.03 185.613 193.03C186.733 193.03 187.553 193.59 187.553 194.87V198H186.973L186.883 197.15C186.583 197.76 185.923 198.12 185.103 198.12ZM185.263 197.56C186.283 197.56 186.873 196.85 186.873 195.8V195.54L185.443 195.65C184.533 195.73 184.163 196.13 184.163 196.67C184.163 197.26 184.603 197.56 185.263 197.56ZM189.658 198H188.968V190.71H189.658V198ZM191.465 191.83C191.185 191.83 190.955 191.6 190.955 191.32C190.955 191.04 191.185 190.8 191.465 190.8C191.745 190.8 191.985 191.04 191.985 191.32C191.985 191.6 191.745 191.83 191.465 191.83ZM191.125 198V193.16H191.815V198H191.125ZM196.574 198H192.924V197.45L195.724 193.74H192.924V193.16H196.574V193.72L193.764 197.42H196.574V198ZM199.561 198.12C198.141 198.12 197.191 197.1 197.191 195.58C197.191 194.07 198.131 193.03 199.511 193.03C200.821 193.03 201.711 193.96 201.711 195.33V195.67H197.861C197.911 196.85 198.531 197.53 199.571 197.53C200.361 197.53 200.871 197.19 201.051 196.55H201.711C201.451 197.57 200.701 198.12 199.561 198.12ZM199.511 193.62C198.601 193.62 198.001 194.22 197.881 195.17H201.021C201.021 194.24 200.421 193.62 199.511 193.62ZM204.714 198.12C203.304 198.12 202.474 197.04 202.474 195.59C202.474 194.13 203.304 193.03 204.744 193.03C205.544 193.03 206.184 193.38 206.524 194.08V190.71H207.214V198H206.614L206.544 197.01C206.204 197.76 205.524 198.12 204.714 198.12ZM204.834 197.49C205.894 197.49 206.514 196.69 206.514 195.57C206.514 194.46 205.894 193.65 204.834 193.65C203.784 193.65 203.174 194.46 203.174 195.57C203.174 196.69 203.784 197.49 204.834 197.49Z" fill="#475467"/>
<path d="M235.6 173H345.4V215H235.6V173Z" fill="white"/>
<path d="M235.6 173.5H345.4V172.5H235.6V173.5ZM345.4 214.5H235.6V215.5H345.4V214.5Z" fill="#EAECF0"/>
<path d="M286.81 191.49H285.35V190.84H287.5V198H286.81V191.49ZM288.89 194.42C288.89 192.2 289.98 190.7 291.76 190.7C293.53 190.7 294.62 192.2 294.62 194.42C294.62 196.65 293.55 198.13 291.76 198.13C289.96 198.13 288.89 196.65 288.89 194.42ZM289.6 194.42C289.6 196.28 290.39 197.48 291.76 197.48C293.13 197.48 293.92 196.28 293.92 194.42C293.92 192.55 293.13 191.36 291.76 191.36C290.39 191.36 289.6 192.55 289.6 194.42Z" fill="#475467"/>
<path d="M345.4 173H455.2V215H345.4V173Z" fill="white"/>
<path d="M345.4 173.5H455.2V172.5H345.4V173.5ZM455.2 214.5H345.4V215.5H455.2V214.5Z" fill="#EAECF0"/>
<g style="mix-blend-mode:multiply">
<rect x="358.8" y="183.5" width="83" height="21" rx="10.5" fill="#EFF8FF"/>
<rect x="358.8" y="183.5" width="83" height="21" rx="10.5" stroke="#B2DDFF"/>
<path d="M367.929 198H366.909L369.549 190.77H370.639L373.289 198H372.259L371.609 196.2H368.569L367.929 198ZM369.969 192.33L368.869 195.35H371.319L370.209 192.33C370.159 192.19 370.109 192.02 370.089 191.91C370.069 192.01 370.019 192.18 369.969 192.33ZM373.585 195.56C373.585 194.03 374.555 192.97 375.985 192.97C377.215 192.97 378.075 193.67 378.245 194.76H377.305C377.145 194.14 376.645 193.81 376.015 193.81C375.125 193.81 374.515 194.49 374.515 195.55C374.515 196.6 375.085 197.28 375.975 197.28C376.645 197.28 377.145 196.93 377.315 196.35H378.255C378.065 197.41 377.155 198.12 375.975 198.12C374.535 198.12 373.585 197.1 373.585 195.56ZM380.206 198H379.266V190.64H380.206V195.41L382.376 193.11H383.556L381.686 195.06L383.546 198H382.466L381.036 195.74L380.206 196.61V198ZM385.265 198H384.325V193.11H385.175L385.275 193.86C385.585 193.3 386.205 192.97 386.895 192.97C388.185 192.97 388.775 193.76 388.775 195.01V198H387.835V195.22C387.835 194.23 387.375 193.83 386.655 193.83C385.775 193.83 385.265 194.46 385.265 195.41V198ZM389.756 195.55C389.756 194.04 390.836 192.98 392.306 192.98C393.766 192.98 394.846 194.04 394.846 195.55C394.846 197.06 393.766 198.12 392.306 198.12C390.836 198.12 389.756 197.06 389.756 195.55ZM390.706 195.55C390.706 196.57 391.356 197.28 392.306 197.28C393.246 197.28 393.906 196.57 393.906 195.55C393.906 194.53 393.246 193.82 392.306 193.82C391.356 193.82 390.706 194.53 390.706 195.55ZM396.712 198L395.112 193.11H396.082L396.892 195.65C397.002 196.01 397.102 196.38 397.192 196.81C397.272 196.38 397.402 195.97 397.512 195.65L398.332 193.11H399.292L400.102 195.65C400.182 195.89 400.342 196.46 400.422 196.81C400.502 196.42 400.592 196.08 400.732 195.65L401.552 193.11H402.532L400.862 198H399.972L399.122 195.38C398.962 194.89 398.862 194.51 398.812 194.24C398.762 194.48 398.672 194.8 398.492 195.39L397.642 198H396.712ZM404.298 198H403.358V190.64H404.298V198ZM407.792 198.12C406.352 198.12 405.362 197.08 405.362 195.56C405.362 194.03 406.332 192.97 407.752 192.97C409.142 192.97 410.052 193.93 410.052 195.38V195.73L406.272 195.74C406.342 196.77 406.882 197.34 407.812 197.34C408.542 197.34 409.022 197.04 409.182 196.48H410.062C409.822 197.53 409.002 198.12 407.792 198.12ZM407.752 193.76C406.932 193.76 406.412 194.25 406.292 195.11H409.112C409.112 194.3 408.582 193.76 407.752 193.76ZM413.062 198.12C411.642 198.12 410.782 197.06 410.782 195.57C410.782 194.07 411.652 192.97 413.102 192.97C413.852 192.97 414.482 193.3 414.812 193.9V190.64H415.742V198H414.902L414.822 197.11C414.502 197.78 413.842 198.12 413.062 198.12ZM413.252 197.27C414.212 197.27 414.802 196.56 414.802 195.54C414.802 194.54 414.212 193.82 413.252 193.82C412.292 193.82 411.732 194.54 411.732 195.54C411.732 196.55 412.292 197.27 413.252 197.27ZM416.788 195.43C416.788 194.05 417.678 192.97 419.098 192.97C419.888 192.97 420.498 193.33 420.808 193.94L420.878 193.11H421.718V197.8C421.718 199.34 420.768 200.32 419.268 200.32C417.938 200.32 417.028 199.57 416.848 198.33H417.788C417.908 199.05 418.448 199.47 419.268 199.47C420.188 199.47 420.788 198.87 420.788 197.94V196.96C420.468 197.53 419.828 197.87 419.058 197.87C417.668 197.87 416.788 196.8 416.788 195.43ZM417.728 195.41C417.728 196.33 418.298 197.05 419.218 197.05C420.168 197.05 420.748 196.37 420.748 195.41C420.748 194.47 420.188 193.79 419.228 193.79C418.288 193.79 417.728 194.51 417.728 195.41ZM425.185 198.12C423.745 198.12 422.755 197.08 422.755 195.56C422.755 194.03 423.725 192.97 425.145 192.97C426.535 192.97 427.445 193.93 427.445 195.38V195.73L423.665 195.74C423.735 196.77 424.275 197.34 425.205 197.34C425.935 197.34 426.415 197.04 426.575 196.48H427.455C427.215 197.53 426.395 198.12 425.185 198.12ZM425.145 193.76C424.325 193.76 423.805 194.25 423.685 195.11H426.505C426.505 194.3 425.975 193.76 425.145 193.76ZM430.454 198.12C429.034 198.12 428.174 197.06 428.174 195.57C428.174 194.07 429.044 192.97 430.494 192.97C431.244 192.97 431.874 193.3 432.204 193.9V190.64H433.134V198H432.294L432.214 197.11C431.894 197.78 431.234 198.12 430.454 198.12ZM430.644 197.27C431.604 197.27 432.194 196.56 432.194 195.54C432.194 194.54 431.604 193.82 430.644 193.82C429.684 193.82 429.124 194.54 429.124 195.54C429.124 196.55 429.684 197.27 430.644 197.27Z" fill="#175CD3"/>
</g>
<path d="M455.2 173H565V215H455.2V173Z" fill="white"/>
<path d="M455.2 173.5H565V172.5H455.2V173.5ZM565 214.5H455.2V215.5H565V214.5Z" fill="#EAECF0"/>
<path d="M501.46 198L498.7 190.69H500.06L501.66 194.9C501.82 195.34 501.96 195.77 502.12 196.36C502.3 195.72 502.45 195.27 502.59 194.9L504.17 190.69H505.5L502.78 198H501.46ZM506.842 192.07C506.422 192.07 506.092 191.74 506.092 191.33C506.092 190.92 506.422 190.6 506.842 190.6C507.242 190.6 507.572 190.92 507.572 191.33C507.572 191.74 507.242 192.07 506.842 192.07ZM506.232 198V193.06H507.452V198H506.232ZM510.922 198.13C509.452 198.13 508.422 197.06 508.422 195.53C508.422 193.98 509.432 192.91 510.882 192.91C512.362 192.91 513.302 193.9 513.302 195.44V195.81L509.582 195.82C509.672 196.69 510.132 197.13 510.942 197.13C511.612 197.13 512.052 196.87 512.192 196.4H513.322C513.112 197.48 512.212 198.13 510.922 198.13ZM510.892 193.91C510.172 193.91 509.732 194.3 509.612 195.04H512.092C512.092 194.36 511.622 193.91 510.892 193.91ZM515.154 198L513.554 193.06H514.824L515.474 195.18C515.584 195.57 515.684 196 515.774 196.46C515.864 195.98 515.954 195.67 516.114 195.18L516.794 193.06H518.034L518.694 195.18C518.754 195.38 518.954 196.12 519.014 196.45C519.094 196.08 519.254 195.49 519.344 195.18L520.004 193.06H521.294L519.584 198H518.444L517.764 195.86C517.564 195.21 517.454 194.74 517.414 194.49C517.364 194.72 517.274 195.07 517.024 195.88L516.344 198H515.154Z" fill="#014DAF"/>
<path d="M16 215H125.8V257H16V215Z" fill="white"/>
<path d="M16 215.5H125.8V214.5H16V215.5Z" fill="#EAECF0"/>
<path d="M52.1899 240.11C50.1899 240.11 48.8299 238.62 48.8299 236.42C48.8299 234.22 50.2099 232.72 52.2299 232.72C53.7699 232.72 54.9799 233.65 55.2699 235.07H54.4999C54.1999 234.04 53.3199 233.41 52.1999 233.41C50.6299 233.41 49.5799 234.61 49.5799 236.42C49.5799 238.22 50.6299 239.42 52.1999 239.42C53.3299 239.42 54.2299 238.81 54.5399 237.85H55.3099C54.9799 239.2 53.7299 240.11 52.1899 240.11ZM56.0651 237.58C56.0651 236.1 57.1051 235.03 58.5251 235.03C59.9451 235.03 60.9851 236.1 60.9851 237.58C60.9851 239.05 59.9451 240.12 58.5251 240.12C57.1051 240.12 56.0651 239.05 56.0651 237.58ZM56.7651 237.57C56.7651 238.71 57.4851 239.5 58.5251 239.5C59.5551 239.5 60.2851 238.71 60.2851 237.57C60.2851 236.45 59.5551 235.65 58.5251 235.65C57.4851 235.65 56.7651 236.45 56.7651 237.57ZM64.6187 235.1V235.72H64.2387C63.3487 235.72 62.7787 236.32 62.7787 237.24V240H62.0887V235.16H62.7387L62.7887 235.91C62.9787 235.39 63.4887 235.05 64.1687 235.05C64.3187 235.05 64.4487 235.06 64.6187 235.1ZM65.5359 242.11V235.16H66.1359L66.2059 236.14C66.5459 235.39 67.2259 235.03 68.0359 235.03C69.4359 235.03 70.2759 236.1 70.2759 237.56C70.2759 239.02 69.4659 240.12 68.0359 240.12C67.2159 240.12 66.5659 239.77 66.2259 239.07V242.11H65.5359ZM66.2359 237.58C66.2359 238.69 66.8559 239.5 67.9159 239.5C68.9659 239.5 69.5759 238.69 69.5759 237.58C69.5759 236.46 68.9659 235.66 67.9159 235.66C66.8559 235.66 66.2359 236.46 66.2359 237.58ZM71.0358 237.58C71.0358 236.1 72.0758 235.03 73.4958 235.03C74.9158 235.03 75.9558 236.1 75.9558 237.58C75.9558 239.05 74.9158 240.12 73.4958 240.12C72.0758 240.12 71.0358 239.05 71.0358 237.58ZM71.7358 237.57C71.7358 238.71 72.4558 239.5 73.4958 239.5C74.5258 239.5 75.2558 238.71 75.2558 237.57C75.2558 236.45 74.5258 235.65 73.4958 235.65C72.4558 235.65 71.7358 236.45 71.7358 237.57ZM79.5894 235.1V235.72H79.2094C78.3194 235.72 77.7494 236.32 77.7494 237.24V240H77.0594V235.16H77.7094L77.7594 235.91C77.9494 235.39 78.4594 235.05 79.1394 235.05C79.2894 235.05 79.4194 235.06 79.5894 235.1ZM81.7013 240.12C80.6713 240.12 80.0613 239.54 80.0613 238.69C80.0613 237.8 80.7413 237.24 81.8713 237.15L83.4713 237.02V236.86C83.4713 235.91 82.9013 235.61 82.1913 235.61C81.3513 235.61 80.8513 235.99 80.8513 236.64H80.2213C80.2213 235.66 81.0213 235.03 82.2113 235.03C83.3313 235.03 84.1513 235.59 84.1513 236.87V240H83.5713L83.4813 239.15C83.1813 239.76 82.5213 240.12 81.7013 240.12ZM81.8613 239.56C82.8813 239.56 83.4713 238.85 83.4713 237.8V237.54L82.0413 237.65C81.1313 237.73 80.7613 238.13 80.7613 238.67C80.7613 239.26 81.2013 239.56 81.8613 239.56ZM86.558 240H85.878V235.74H84.908V235.16H85.878V233.63H86.558V235.16H87.528V235.74H86.558V240ZM90.4077 240.12C88.9877 240.12 88.0377 239.1 88.0377 237.58C88.0377 236.07 88.9777 235.03 90.3577 235.03C91.6677 235.03 92.5577 235.96 92.5577 237.33V237.67H88.7077C88.7577 238.85 89.3777 239.53 90.4177 239.53C91.2077 239.53 91.7177 239.19 91.8977 238.55H92.5577C92.2977 239.57 91.5477 240.12 90.4077 240.12ZM90.3577 235.62C89.4477 235.62 88.8477 236.22 88.7277 237.17H91.8677C91.8677 236.24 91.2677 235.62 90.3577 235.62Z" fill="#475467"/>
<path d="M125.8 215H235.6V257H125.8V215Z" fill="white"/>
<path d="M125.8 215.5H235.6V214.5H125.8V215.5Z" fill="#EAECF0"/>
<path d="M167.29 232.84V240H166.57V232.84H167.29ZM169.571 240H168.881V235.16H169.481L169.581 236C169.901 235.38 170.541 235.03 171.241 235.03C172.571 235.03 173.121 235.82 173.121 237.04V240H172.431V237.19C172.431 236.06 171.921 235.66 171.121 235.66C170.131 235.66 169.571 236.38 169.571 237.47V240ZM174.028 238.64H174.688C174.688 239.2 175.108 239.55 175.788 239.55C176.538 239.55 176.978 239.23 176.978 238.71C176.978 238.31 176.778 238.08 176.208 237.94L175.378 237.73C174.538 237.52 174.128 237.08 174.128 236.42C174.128 235.57 174.838 235.03 175.878 235.03C176.898 235.03 177.558 235.59 177.588 236.49H176.918C176.898 235.93 176.508 235.6 175.858 235.6C175.178 235.6 174.798 235.89 174.798 236.41C174.798 236.78 175.058 237.04 175.588 237.17L176.418 237.38C177.258 237.59 177.638 237.98 177.638 238.68C177.638 239.55 176.898 240.12 175.798 240.12C174.708 240.12 174.028 239.54 174.028 238.64ZM179.883 240H179.203V235.74H178.233V235.16H179.203V233.63H179.883V235.16H180.853V235.74H179.883V240ZM183.064 240.12C182.034 240.12 181.424 239.54 181.424 238.69C181.424 237.8 182.104 237.24 183.234 237.15L184.834 237.02V236.86C184.834 235.91 184.264 235.61 183.554 235.61C182.714 235.61 182.214 235.99 182.214 236.64H181.584C181.584 235.66 182.384 235.03 183.574 235.03C184.694 235.03 185.514 235.59 185.514 236.87V240H184.934L184.844 239.15C184.544 239.76 183.884 240.12 183.064 240.12ZM183.224 239.56C184.244 239.56 184.834 238.85 184.834 237.8V237.54L183.404 237.65C182.494 237.73 182.124 238.13 182.124 238.67C182.124 239.26 182.564 239.56 183.224 239.56ZM187.588 240H186.898V235.16H187.498L187.598 236C187.918 235.38 188.558 235.03 189.258 235.03C190.588 235.03 191.138 235.82 191.138 237.04V240H190.448V237.19C190.448 236.06 189.938 235.66 189.138 235.66C188.148 235.66 187.588 236.38 187.588 237.47V240ZM193.624 240H192.944V235.74H191.974V235.16H192.944V233.63H193.624V235.16H194.594V235.74H193.624V240Z" fill="#475467"/>
<path d="M235.6 215H345.4V257H235.6V215Z" fill="white"/>
<path d="M235.6 215.5H345.4V214.5H235.6V215.5Z" fill="#EAECF0"/>
<path d="M286.81 233.49H285.35V232.84H287.5V240H286.81V233.49ZM288.89 236.42C288.89 234.2 289.98 232.7 291.76 232.7C293.53 232.7 294.62 234.2 294.62 236.42C294.62 238.65 293.55 240.13 291.76 240.13C289.96 240.13 288.89 238.65 288.89 236.42ZM289.6 236.42C289.6 238.28 290.39 239.48 291.76 239.48C293.13 239.48 293.92 238.28 293.92 236.42C293.92 234.55 293.13 233.36 291.76 233.36C290.39 233.36 289.6 234.55 289.6 236.42Z" fill="#475467"/>
<path d="M345.4 215H455.2V257H345.4V215Z" fill="white"/>
<path d="M345.4 215.5H455.2V214.5H345.4V215.5Z" fill="#EAECF0"/>
<g style="mix-blend-mode:multiply">
<rect x="373.8" y="225.5" width="53" height="21" rx="10.5" fill="#F9FAFB"/>
<rect x="373.8" y="225.5" width="53" height="21" rx="10.5" stroke="#EAECF0"/>
<path d="M385.337 237.42H383.507V240H382.527V232.77H385.337C386.757 232.77 387.667 233.7 387.667 235.09C387.667 236.44 386.747 237.42 385.337 237.42ZM385.167 233.65H383.507V236.54H385.127C386.097 236.54 386.637 235.97 386.637 235.08C386.637 234.17 386.087 233.65 385.167 233.65ZM390.502 240.12C389.062 240.12 388.072 239.08 388.072 237.56C388.072 236.03 389.042 234.97 390.462 234.97C391.852 234.97 392.762 235.93 392.762 237.38V237.73L388.982 237.74C389.052 238.77 389.592 239.34 390.522 239.34C391.252 239.34 391.732 239.04 391.892 238.48H392.772C392.532 239.53 391.712 240.12 390.502 240.12ZM390.462 235.76C389.642 235.76 389.122 236.25 389.002 237.11H391.822C391.822 236.3 391.292 235.76 390.462 235.76ZM394.752 240H393.812V235.11H394.662L394.762 235.86C395.072 235.3 395.692 234.97 396.382 234.97C397.672 234.97 398.262 235.76 398.262 237.01V240H397.322V237.22C397.322 236.23 396.862 235.83 396.142 235.83C395.262 235.83 394.752 236.46 394.752 237.41V240ZM401.524 240.12C400.104 240.12 399.244 239.06 399.244 237.57C399.244 236.07 400.114 234.97 401.564 234.97C402.314 234.97 402.944 235.3 403.274 235.9V232.64H404.204V240H403.364L403.284 239.11C402.964 239.78 402.304 240.12 401.524 240.12ZM401.714 239.27C402.674 239.27 403.264 238.56 403.264 237.54C403.264 236.54 402.674 235.82 401.714 235.82C400.754 235.82 400.194 236.54 400.194 237.54C400.194 238.55 400.754 239.27 401.714 239.27ZM406.02 233.95C405.68 233.95 405.4 233.67 405.4 233.33C405.4 232.98 405.68 232.71 406.02 232.71C406.36 232.71 406.64 232.98 406.64 233.33C406.64 233.67 406.36 233.95 406.02 233.95ZM405.56 240V235.11H406.5V240H405.56ZM408.805 240H407.865V235.11H408.715L408.815 235.86C409.125 235.3 409.745 234.97 410.435 234.97C411.725 234.97 412.315 235.76 412.315 237.01V240H411.375V237.22C411.375 236.23 410.915 235.83 410.195 235.83C409.315 235.83 408.805 236.46 408.805 237.41V240ZM413.307 237.43C413.307 236.05 414.197 234.97 415.617 234.97C416.407 234.97 417.017 235.33 417.327 235.94L417.397 235.11H418.237V239.8C418.237 241.34 417.287 242.32 415.787 242.32C414.457 242.32 413.547 241.57 413.367 240.33H414.307C414.427 241.05 414.967 241.47 415.787 241.47C416.707 241.47 417.307 240.87 417.307 239.94V238.96C416.987 239.53 416.347 239.87 415.577 239.87C414.187 239.87 413.307 238.8 413.307 237.43ZM414.247 237.41C414.247 238.33 414.817 239.05 415.737 239.05C416.687 239.05 417.267 238.37 417.267 237.41C417.267 236.47 416.707 235.79 415.747 235.79C414.807 235.79 414.247 236.51 414.247 237.41Z" fill="#344054"/>
</g>
<path d="M455.2 215H565V257H455.2V215Z" fill="white"/>
<path d="M455.2 215.5H565V214.5H455.2V215.5ZM565 256.5H455.2V257.5H565V256.5Z" fill="#EAECF0"/>
<path d="M501.46 240L498.7 232.69H500.06L501.66 236.9C501.82 237.34 501.96 237.77 502.12 238.36C502.3 237.72 502.45 237.27 502.59 236.9L504.17 232.69H505.5L502.78 240H501.46ZM506.842 234.07C506.422 234.07 506.092 233.74 506.092 233.33C506.092 232.92 506.422 232.6 506.842 232.6C507.242 232.6 507.572 232.92 507.572 233.33C507.572 233.74 507.242 234.07 506.842 234.07ZM506.232 240V235.06H507.452V240H506.232ZM510.922 240.13C509.452 240.13 508.422 239.06 508.422 237.53C508.422 235.98 509.432 234.91 510.882 234.91C512.362 234.91 513.302 235.9 513.302 237.44V237.81L509.582 237.82C509.672 238.69 510.132 239.13 510.942 239.13C511.612 239.13 512.052 238.87 512.192 238.4H513.322C513.112 239.48 512.212 240.13 510.922 240.13ZM510.892 235.91C510.172 235.91 509.732 236.3 509.612 237.04H512.092C512.092 236.36 511.622 235.91 510.892 235.91ZM515.154 240L513.554 235.06H514.824L515.474 237.18C515.584 237.57 515.684 238 515.774 238.46C515.864 237.98 515.954 237.67 516.114 237.18L516.794 235.06H518.034L518.694 237.18C518.754 237.38 518.954 238.12 519.014 238.45C519.094 238.08 519.254 237.49 519.344 237.18L520.004 235.06H521.294L519.584 240H518.444L517.764 237.86C517.564 237.21 517.454 236.74 517.414 236.49C517.364 236.72 517.274 237.07 517.024 237.88L516.344 240H515.154Z" fill="#014DAF"/>
<defs>
<clipPath id="clip0_112_6638">
<rect width="549" height="34" fill="white" transform="translate(16 55)"/>
</clipPath>
</defs>
</svg>
